<?xml version="1.0" encoding="UTF-8"?><svg id="Bærekraftsforskning_en_linje_sort(NO)_svg__Layer_2" xmlns="http://www.w3.org/2000/svg" viewBox="1 0 799 122"><defs><style>.Bærekraftsforskning_en_linje_sort(NO)_svg__cls-4{stroke-width:0px}</style></defs><g id="Bærekraftsforskning_en_linje_sort(NO)_svg__Layer_2-2"><path d="M768.1,91.15l-4.35,23.35s8.31,1.98,16.87,0l-4.47-23.35s-4.09.4-8.05,0Z" style="fill:#fd6925;stroke-width:0px"/><path d="M779.42,90.29l4.41,23.34s8.46-1.17,15.72-6.12l-12.64-20.14s-3.67,1.85-7.5,2.92Z" style="fill:#a21942;stroke-width:0px"/><path d="M789.48,85.62l12.57,20.16s7.46-4.16,12.44-11.4l-19.08-14.19s-2.75,3.05-5.93,5.44Z" style="fill:#fcc30b;stroke-width:0px"/><path d="M797.25,77.79l19.17,14.03s5.38-6.64,7.3-15.21l-22.99-6.08s-1.41,3.86-3.48,7.25Z" style="fill:#26bde2;stroke-width:0px"/><path d="M801.37,67.22l22.95,6.13s2.61-8.14,1.29-16.82l-23.63,2.67s.08,4.11-.61,8.02Z" style="fill:#ff3a21;stroke-width:0px"/><path d="M801.52,56.12l23.61-2.61s-.52-8.53-4.9-16.15l-21.05,11.05s1.56,3.8,2.33,7.7Z" style="fill:#c5192d;stroke-width:0px"/><path d="M798.47,45.79l21.25-10.63s-3.44-7.82-10.19-13.45l-15.92,17.66s2.78,3.02,4.86,6.41Z" style="fill:#4c9f38;stroke-width:0px"/><path d="M791.09,37.32l15.74-17.79s-6.11-5.97-14.47-8.68l-8.17,22.33s3.71,1.76,6.9,4.14Z" style="fill:#dda63a;stroke-width:0px"/><path d="M781.3,32.46l8.21-22.29s-7.86-3.35-16.63-2.83l.49,23.77s4.1.3,7.93,1.35Z" style="fill:#e5243b;stroke-width:0px"/><path d="M770.25,31l-.44-23.75s-8.54-.26-16.53,3.4l9.09,21.97s3.92-1.21,7.88-1.62Z" style="fill:#19486a;stroke-width:0px"/><path d="M759.3,33.72l-8.97-22s-8.06,2.83-14.19,9.13l16.4,17.22s3.22-2.55,6.77-4.35Z" style="stroke-width:0px;fill:#00689d"/><path d="M750.37,40.3l-16.33-17.25s-6.49,5.56-9.92,13.65l21.52,10.11s2.08-3.54,4.73-6.51Z" style="fill:#56c02b;stroke-width:0px"/><path d="M744.47,49.04l-20.96-11.18s-4.39,7.33-5.08,16.09l23.62,2.77s.85-4.02,2.42-7.67Z" style="fill:#0a97d9;stroke-width:0px"/><path d="M741.81,59.81l-23.59-2.83s-1.44,8.42,1.1,16.84l23.01-5.98s-.66-4.05-.52-8.03Z" style="fill:#3f7e44;stroke-width:0px"/><path d="M743.04,70.77l-22.95,6.15s1.8,8.35,7.28,15.22l19.14-14.11s-2.12-3.52-3.47-7.26Z" style="fill:#bf8b2e;stroke-width:0px"/><path d="M748.7,80.61l-19.15,14.05s4.71,7.13,12.3,11.54l12.72-20.09s-3.25-2.51-5.87-5.51Z" style="fill:#fd9d24;stroke-width:0px"/><path d="M757.26,87.67l-12.76,20.04s6.97,4.94,15.65,6.3l4.57-23.33s-3.94-1.16-7.46-3.01Z" style="fill:#dd1367;stroke-width:0px"/><line x1="681.3" x2="681.3" y2="122.63" style="fill:none;stroke:#1d1d1b;stroke-miterlimit:10;stroke-width:.75px"/><path class="Bærekraftsforskning_en_linje_sort(NO)_svg__cls-4" d="M8.86,43.78v5.29h8.74v6.93h-8.74v10.25H0v-29.41h18.44v6.93h-9.58Z"/><path class="Bærekraftsforskning_en_linje_sort(NO)_svg__cls-4" d="M22.72,66.26v-29.41h8.86v29.41h-8.86Z"/><path class="Bærekraftsforskning_en_linje_sort(NO)_svg__cls-4" d="M57.91,66.26l-10.38-14.19c-.82-1.12-1.49-2.13-2.01-3.04h-.08c.08,1.45.12,3.08.12,4.88v12.35h-8.2v-29.41h8.37l9.95,13.49c.12.18.27.39.45.64s.36.5.53.76.35.51.5.76c.16.25.28.46.36.66h.08c-.08-.6-.12-1.64-.12-3.12v-13.19h8.2v29.41h-7.77Z"/><path class="Bærekraftsforskning_en_linje_sort(NO)_svg__cls-4" d="M92.02,66.26l-10.38-14.19c-.82-1.12-1.49-2.13-2.01-3.04h-.08c.08,1.45.12,3.08.12,4.88v12.35h-8.2v-29.41h8.37l9.95,13.49c.12.18.27.39.45.64s.36.5.53.76.34.51.5.76c.16.25.28.46.36.66h.08c-.08-.6-.12-1.64-.12-3.12v-13.19h8.2v29.41h-7.77Z"/><path class="Bærekraftsforskning_en_linje_sort(NO)_svg__cls-4" d="M142.37,57.23c0,2.88-1.01,5.11-3.04,6.68s-4.92,2.35-8.67,2.35h-13.41v-29.41h12.49c7.81,0,11.71,2.37,11.71,7.12,0,1.03-.25,1.97-.74,2.82-.49.86-1.24,1.6-2.25,2.25-1,.64-2.11,1.08-3.31,1.31v.08c1.39.16,2.65.58,3.75,1.24,1.11.66,1.96,1.49,2.56,2.48s.9,2.02.9,3.09ZM132.03,45.5c0-1.82-1.43-2.73-4.29-2.73h-1.64v5.56h2.56c.98,0,1.79-.26,2.42-.79s.94-1.21.94-2.04ZM132.95,57.19c0-.85-.31-1.54-.92-2.09s-1.43-.82-2.44-.82h-3.49v6.01h2.95c1.2,0,2.15-.28,2.85-.83.7-.55,1.05-1.31,1.05-2.27Z"/><path class="Bærekraftsforskning_en_linje_sort(NO)_svg__cls-4" d="M164.7,66.26v-5.41h-8.86l-2.44,5.41h-10.27l15.32-29.41h24.57v6.93h-9.43v4.29h8.86v6.93h-8.86v4.33h10.11v6.93h-18.99ZM164.7,43.78h-1.13l-4.92,10.77h6.05v-10.77Z"/><path class="Bærekraftsforskning_en_linje_sort(NO)_svg__cls-4" d="M203.15,66.26l-2.19-6.34c-.42-1.24-.97-2.22-1.65-2.93-.68-.71-1.41-1.07-2.21-1.07h-.35v10.34h-8.86v-29.41h11.77c4.12,0,7.15.67,9.12,2.02,1.96,1.35,2.94,3.37,2.94,6.06,0,2.02-.57,3.72-1.71,5.09-1.14,1.37-2.84,2.36-5.1,2.97v.08c1.24.38,2.28,1,3.11,1.87.83.86,1.57,2.14,2.23,3.83l2.89,7.49h-9.99ZM202.31,46.18c0-.98-.3-1.76-.9-2.34s-1.54-.86-2.83-.86h-1.83v6.73h1.6c1.19,0,2.15-.33,2.87-1s1.09-1.51,1.09-2.52Z"/><path class="Bærekraftsforskning_en_linje_sort(NO)_svg__cls-4" d="M216.54,66.26v-29.41h18.31v6.93h-9.45v4.29h8.88v6.93h-8.88v4.33h10.13v6.93h-18.99Z"/><path class="Bærekraftsforskning_en_linje_sort(NO)_svg__cls-4" d="M255.98,66.26l-6.52-12.43c-.44-.98-.7-1.66-.78-2.03h-.1v14.46h-8.86v-29.41h8.86v13.99h.1c.26-.74.55-1.42.88-2.05l5.87-11.94h10.5l-8.35,14.03,9.15,15.38h-10.75Z"/><path class="Bærekraftsforskning_en_linje_sort(NO)_svg__cls-4" d="M283.95,66.26l-2.19-6.34c-.42-1.24-.97-2.22-1.65-2.93-.68-.71-1.41-1.07-2.21-1.07h-.35v10.34h-8.86v-29.41h11.77c4.12,0,7.15.67,9.12,2.02,1.96,1.35,2.94,3.37,2.94,6.06,0,2.02-.57,3.72-1.71,5.09-1.14,1.37-2.84,2.36-5.1,2.97v.08c1.24.38,2.28,1,3.11,1.87.83.86,1.57,2.14,2.23,3.83l2.89,7.49h-9.99ZM283.11,46.18c0-.98-.3-1.76-.9-2.34s-1.54-.86-2.83-.86h-1.83v6.73h1.6c1.19,0,2.15-.33,2.87-1s1.09-1.51,1.09-2.52Z"/><path class="Bærekraftsforskning_en_linje_sort(NO)_svg__cls-4" d="M315.78,66.26l-1.29-5.41h-8.78l-1.39,5.41h-9.58l10.13-29.41h10.99l9.54,29.41h-9.62ZM310.2,43.25h-.21c-.03.33-.12.87-.29,1.62s-.99,3.98-2.48,9.68h5.62l-2.05-8c-.29-1.18-.49-2.28-.59-3.3Z"/><path class="Bærekraftsforskning_en_linje_sort(NO)_svg__cls-4" d="M337.7,43.78v5.29h8.74v6.93h-8.74v10.25h-8.86v-29.41h18.44v6.93h-9.58Z"/><path class="Bærekraftsforskning_en_linje_sort(NO)_svg__cls-4" d="M366.43,43.78v22.48h-8.9v-22.48h-8.22v-6.93h25.45v6.93h-8.33Z"/><path class="Bærekraftsforskning_en_linje_sort(NO)_svg__cls-4" d="M398.71,57.35c0,1.96-.52,3.66-1.57,5.11-1.04,1.45-2.51,2.53-4.4,3.24s-4.16,1.07-6.81,1.07c-3.08,0-5.89-.52-8.45-1.56v-8.06c1.23.9,2.59,1.63,4.08,2.18,1.49.55,2.88.83,4.16.83.97,0,1.72-.17,2.26-.52.53-.35.8-.86.8-1.53,0-.48-.13-.9-.4-1.26-.27-.36-.67-.7-1.21-1.02-.54-.31-1.54-.75-3-1.29-4.73-1.82-7.1-4.76-7.1-8.82,0-2.84,1.08-5.12,3.24-6.82,2.16-1.7,5.06-2.55,8.7-2.55,1.03,0,1.97.04,2.83.12s1.64.18,2.35.31c.71.12,1.69.36,2.96.7v7.49c-2.47-1.35-4.91-2.03-7.3-2.03-.98,0-1.78.18-2.38.55s-.9.88-.9,1.52.24,1.12.73,1.53c.49.4,1.5.93,3.05,1.57,3.05,1.23,5.21,2.58,6.47,4.04,1.27,1.46,1.9,3.2,1.9,5.21Z"/><path class="Bærekraftsforskning_en_linje_sort(NO)_svg__cls-4" d="M411.16,43.78v5.29h8.74v6.93h-8.74v10.25h-8.86v-29.41h18.44v6.93h-9.58Z"/><path class="Bærekraftsforskning_en_linje_sort(NO)_svg__cls-4" d="M453,51.47c0,2.95-.64,5.6-1.91,7.93s-3.05,4.14-5.33,5.43c-2.28,1.29-4.84,1.94-7.67,1.94s-5.27-.63-7.54-1.88c-2.26-1.25-4.02-3.01-5.28-5.27-1.26-2.26-1.89-4.82-1.89-7.68s.64-5.69,1.91-8.08,3.06-4.24,5.35-5.55,4.91-1.96,7.83-1.96,5.34.62,7.56,1.88c2.22,1.25,3.94,3.04,5.15,5.35,1.21,2.32,1.81,4.95,1.81,7.89ZM443.6,51.71c0-2.42-.46-4.33-1.39-5.72s-2.2-2.09-3.81-2.09c-1.76,0-3.14.67-4.12,2.01s-1.48,3.23-1.48,5.68.49,4.26,1.47,5.6c.98,1.34,2.31,2.01,3.99,2.01,1.03,0,1.95-.3,2.77-.9s1.46-1.46,1.91-2.58.68-2.45.68-4Z"/><path class="Bærekraftsforskning_en_linje_sort(NO)_svg__cls-4" d="M472.42,66.26l-2.19-6.34c-.42-1.24-.97-2.22-1.65-2.93-.68-.71-1.41-1.07-2.21-1.07h-.35v10.34h-8.86v-29.41h11.77c4.12,0,7.15.67,9.12,2.02,1.96,1.35,2.94,3.37,2.94,6.06,0,2.02-.57,3.72-1.71,5.09-1.14,1.37-2.84,2.36-5.1,2.97v.08c1.24.38,2.28,1,3.11,1.87.83.86,1.57,2.14,2.23,3.83l2.89,7.49h-9.99ZM471.58,46.18c0-.98-.3-1.76-.9-2.34s-1.54-.86-2.83-.86h-1.83v6.73h1.6c1.19,0,2.15-.33,2.87-1s1.09-1.51,1.09-2.52Z"/><path class="Bærekraftsforskning_en_linje_sort(NO)_svg__cls-4" d="M506.24,57.35c0,1.96-.52,3.66-1.57,5.11-1.05,1.45-2.51,2.53-4.4,3.24s-4.16,1.07-6.81,1.07c-3.08,0-5.89-.52-8.45-1.56v-8.06c1.23.9,2.59,1.63,4.08,2.18,1.49.55,2.88.83,4.16.83.97,0,1.72-.17,2.26-.52.53-.35.8-.86.8-1.53,0-.48-.13-.9-.4-1.26-.27-.36-.67-.7-1.21-1.02-.54-.31-1.54-.75-3-1.29-4.73-1.82-7.1-4.76-7.1-8.82,0-2.84,1.08-5.12,3.24-6.82,2.16-1.7,5.06-2.55,8.7-2.55,1.03,0,1.97.04,2.83.12s1.64.18,2.35.31c.7.12,1.69.36,2.96.7v7.49c-2.47-1.35-4.91-2.03-7.3-2.03-.98,0-1.78.18-2.38.55s-.9.88-.9,1.52.24,1.12.73,1.53c.48.4,1.5.93,3.04,1.57,3.05,1.23,5.21,2.58,6.47,4.04,1.26,1.46,1.9,3.2,1.9,5.21Z"/><path class="Bærekraftsforskning_en_linje_sort(NO)_svg__cls-4" d="M526.09,66.26l-6.52-12.43c-.44-.98-.7-1.66-.78-2.03h-.1v14.46h-8.86v-29.41h8.86v13.99h.1c.26-.74.55-1.42.88-2.05l5.87-11.94h10.5l-8.35,14.03,9.15,15.38h-10.75Z"/><path class="Bærekraftsforskning_en_linje_sort(NO)_svg__cls-4" d="M559.35,66.26l-10.38-14.19c-.82-1.12-1.49-2.13-2.01-3.04h-.08c.08,1.45.12,3.08.12,4.88v12.35h-8.2v-29.41h8.37l9.95,13.49c.12.18.27.39.45.64s.36.5.53.76.34.51.5.76c.16.25.28.46.36.66h.08c-.08-.6-.12-1.64-.12-3.12v-13.19h8.2v29.41h-7.77Z"/><path class="Bærekraftsforskning_en_linje_sort(NO)_svg__cls-4" d="M572.91,66.26v-29.41h8.86v29.41h-8.86Z"/><path class="Bærekraftsforskning_en_linje_sort(NO)_svg__cls-4" d="M608.1,66.26l-10.38-14.19c-.82-1.12-1.49-2.13-2.01-3.04h-.08c.08,1.45.12,3.08.12,4.88v12.35h-8.2v-29.41h8.37l9.95,13.49c.12.18.27.39.45.64s.36.5.53.76.35.51.5.76c.16.25.28.46.36.66h.08c-.08-.6-.12-1.64-.12-3.12v-13.19h8.2v29.41h-7.77Z"/><path class="Bærekraftsforskning_en_linje_sort(NO)_svg__cls-4" d="M647.41,64.33c-1.11.63-2.76,1.19-4.96,1.69-2.2.5-4.3.75-6.3.75-5.15,0-9.13-1.29-11.94-3.87-2.8-2.58-4.2-6.19-4.2-10.84,0-3.12.71-5.89,2.12-8.31,1.41-2.42,3.41-4.26,5.98-5.52s5.6-1.89,9.08-1.89c2.56,0,5.28.36,8.18,1.09v7.73c-1.35-.62-2.65-1.04-3.9-1.28s-2.6-.36-4.08-.36c-2.43,0-4.37.73-5.81,2.19-1.44,1.46-2.16,3.47-2.16,6.03s.6,4.36,1.82,5.74c1.21,1.38,2.9,2.07,5.08,2.07,1.01,0,1.76-.05,2.24-.16v-4.2h-5.64v-6.71h14.5v15.83Z"/><path class="Bærekraftsforskning_en_linje_sort(NO)_svg__cls-4" d="M10.79,86.47l-4.41,11.9h-1.54l-4.32-11.9h1.55l3.3,9.44c.1.3.19.66.24,1.05h.03c.04-.33.14-.69.27-1.07l3.36-9.42h1.5Z"/><path class="Bærekraftsforskning_en_linje_sort(NO)_svg__cls-4" d="M13.01,87.72c-.24,0-.45-.08-.62-.25s-.26-.38-.26-.63.09-.47.26-.63.38-.25.62-.25.46.08.63.25.26.38.26.63-.09.45-.26.62c-.17.17-.39.26-.63.26ZM13.68,98.38h-1.36v-8.5h1.36v8.5Z"/><path class="Bærekraftsforskning_en_linje_sort(NO)_svg__cls-4" d="M20.57,98.07v-1.46c.74.55,1.56.82,2.45.82,1.2,0,1.79-.4,1.79-1.2,0-.23-.05-.42-.15-.58-.1-.16-.24-.3-.42-.42-.17-.12-.38-.23-.61-.33s-.49-.2-.76-.3c-.38-.15-.71-.3-.99-.45s-.52-.32-.71-.51-.33-.41-.43-.65c-.1-.24-.15-.53-.15-.86,0-.4.09-.75.27-1.06.18-.31.43-.56.73-.77.3-.21.65-.36,1.04-.47.39-.11.79-.16,1.21-.16.74,0,1.39.13,1.98.38v1.38c-.63-.41-1.34-.61-2.16-.61-.25,0-.48.03-.69.09-.21.06-.38.14-.53.25s-.26.23-.34.38c-.08.15-.12.31-.12.49,0,.22.04.41.12.56.08.15.2.28.35.4.16.12.34.22.56.32.22.09.47.2.76.31.38.14.71.29,1.01.44s.55.32.76.51c.21.19.37.41.49.66.11.25.17.54.17.89,0,.42-.09.79-.28,1.1s-.43.57-.74.77c-.31.2-.67.36-1.07.46-.4.1-.83.15-1.27.15-.88,0-1.63-.17-2.27-.51Z"/><path class="Bærekraftsforskning_en_linje_sort(NO)_svg__cls-4" d="M32.25,98.29c-.32.18-.74.27-1.27.27-1.49,0-2.23-.83-2.23-2.49v-5.03h-1.46v-1.16h1.46v-2.08l1.36-.44v2.52h2.14v1.16h-2.14v4.79c0,.57.1.98.29,1.22.19.24.52.37.96.37.34,0,.64-.09.89-.28v1.16Z"/><path class="Bærekraftsforskning_en_linje_sort(NO)_svg__cls-4" d="M42.43,89.68l-1.39,1.49c.54.76.81,1.72.81,2.87,0,1.39-.38,2.5-1.15,3.31-.77.81-1.8,1.22-3.08,1.22-1.06,0-1.94-.28-2.64-.85l-1.2,1.33-.68-.65,1.24-1.36c-.56-.76-.85-1.7-.85-2.82,0-1.43.39-2.54,1.18-3.35.79-.8,1.84-1.2,3.17-1.2,1.02,0,1.87.27,2.56.81l1.35-1.46.7.65ZM39.5,91.44c-.44-.41-1.03-.61-1.78-.61-.88,0-1.57.3-2.08.89s-.76,1.42-.76,2.46c0,.73.14,1.35.42,1.86l4.21-4.6ZM40.08,92.22l-4.22,4.58c.48.42,1.09.63,1.83.63.9,0,1.59-.29,2.06-.86.47-.58.71-1.39.71-2.44,0-.74-.13-1.38-.39-1.91Z"/><path class="Bærekraftsforskning_en_linje_sort(NO)_svg__cls-4" d="M47.97,98.29c-.32.18-.74.27-1.27.27-1.49,0-2.23-.83-2.23-2.49v-5.03h-1.46v-1.16h1.46v-2.08l1.36-.44v2.52h2.14v1.16h-2.14v4.79c0,.57.1.98.29,1.22.19.24.51.37.96.37.34,0,.64-.09.89-.28v1.16Z"/><path class="Bærekraftsforskning_en_linje_sort(NO)_svg__cls-4" d="M53.73,98.29c-.32.18-.74.27-1.27.27-1.49,0-2.23-.83-2.23-2.49v-5.03h-1.46v-1.16h1.46v-2.08l1.36-.44v2.52h2.14v1.16h-2.14v4.79c0,.57.1.98.29,1.22.19.24.52.37.96.37.34,0,.64-.09.89-.28v1.16Z"/><path class="Bærekraftsforskning_en_linje_sort(NO)_svg__cls-4" d="M62.38,94.47h-6c.02.95.28,1.68.76,2.19.49.52,1.16.77,2.01.77.96,0,1.84-.32,2.64-.95v1.28c-.75.54-1.74.81-2.96.81s-2.14-.39-2.83-1.16c-.69-.77-1.03-1.86-1.03-3.26,0-1.32.38-2.4,1.12-3.23s1.68-1.25,2.79-1.25,1.97.36,2.58,1.08.91,1.72.91,3v.71ZM60.98,93.31c0-.79-.19-1.4-.57-1.83-.37-.44-.89-.66-1.56-.66s-1.19.23-1.64.69c-.45.46-.72,1.06-.83,1.8h4.59Z"/><path class="Bærekraftsforskning_en_linje_sort(NO)_svg__cls-4" d="M68.87,91.25c-.24-.18-.58-.27-1.03-.27-.58,0-1.07.27-1.46.82-.39.55-.58,1.29-.58,2.24v4.33h-1.36v-8.5h1.36v1.75h.03c.19-.6.49-1.06.89-1.4s.84-.5,1.34-.5c.35,0,.63.04.81.12v1.41Z"/><path class="Bærekraftsforskning_en_linje_sort(NO)_svg__cls-4" d="M81.23,87.73h-4.65v4.12h4.3v1.25h-4.3v5.27h-1.39v-11.9h6.04v1.26Z"/><path class="Bærekraftsforskning_en_linje_sort(NO)_svg__cls-4" d="M93.08,98.38h-1.71l-6.13-9.49c-.15-.24-.28-.49-.38-.75h-.05c.04.25.07.8.07,1.63v8.6h-1.39v-11.9h1.81l5.96,9.34c.25.39.41.65.48.8h.03c-.06-.34-.08-.93-.08-1.75v-8.38h1.39v11.9Z"/><path class="Bærekraftsforskning_en_linje_sort(NO)_svg__cls-4" d="M95.5,98.07v-1.46c.74.55,1.56.82,2.45.82,1.2,0,1.79-.4,1.79-1.2,0-.23-.05-.42-.15-.58-.1-.16-.24-.3-.41-.42s-.38-.23-.62-.33c-.23-.1-.49-.2-.76-.3-.38-.15-.71-.3-.99-.45-.29-.15-.52-.32-.71-.51-.19-.19-.33-.41-.43-.65-.1-.24-.14-.53-.14-.86,0-.4.09-.75.27-1.06.18-.31.43-.56.73-.77.3-.21.65-.36,1.04-.47.39-.11.79-.16,1.21-.16.74,0,1.39.13,1.97.38v1.38c-.62-.41-1.34-.61-2.16-.61-.25,0-.48.03-.69.09-.2.06-.38.14-.53.25-.15.11-.26.23-.34.38-.08.15-.12.31-.12.49,0,.22.04.41.12.56.08.15.2.28.35.4.15.12.34.22.56.32.22.09.47.2.76.31.38.14.71.29,1.01.44s.55.32.76.51c.21.19.37.41.49.66.11.25.17.54.17.89,0,.42-.09.79-.28,1.1-.19.31-.43.57-.74.77-.31.2-.67.36-1.07.46s-.83.15-1.27.15c-.88,0-1.63-.17-2.28-.51Z"/><path class="Bærekraftsforskning_en_linje_sort(NO)_svg__cls-4" d="M109.28,97.15h-.03v1.23h-1.36v-12.58h1.36v5.58h.03c.67-1.13,1.65-1.69,2.94-1.69,1.09,0,1.94.38,2.56,1.14s.93,1.78.93,3.06c0,1.42-.35,2.56-1.04,3.42-.69.85-1.64,1.28-2.84,1.28-1.12,0-1.97-.48-2.55-1.43ZM109.25,93.72v1.19c0,.7.23,1.3.69,1.79.46.49,1.04.73,1.74.73.83,0,1.47-.32,1.94-.95.47-.63.7-1.51.7-2.63,0-.95-.22-1.69-.66-2.22-.44-.54-1.03-.81-1.78-.81-.79,0-1.43.28-1.91.83s-.72,1.24-.72,2.07Z"/><path class="Bærekraftsforskning_en_linje_sort(NO)_svg__cls-4" d="M129.97,94.47h-6.02c.02.95.27,1.68.76,2.19.49.52,1.15.77,2,.77.98,0,1.87-.32,2.66-.95v1.28c-.73.54-1.72.81-2.97.81-1.49,0-2.55-.63-3.18-1.9h-.03c-.8,1.27-1.87,1.9-3.21,1.9-.85,0-1.51-.22-2-.67s-.73-1.04-.73-1.79c0-1.66,1.06-2.56,3.18-2.69l2.17-.13c0-1.65-.59-2.47-1.78-2.47-.97,0-1.88.34-2.74,1.01v-1.36c.82-.53,1.78-.8,2.89-.8,1.28,0,2.11.55,2.49,1.66h.03c.64-1.11,1.63-1.66,2.96-1.66,1.12,0,1.98.36,2.6,1.08.61.72.92,1.73.92,3.01v.7ZM122.61,94.97v-.52l-1.68.1c-.77.04-1.34.18-1.72.41s-.57.6-.57,1.13c0,.4.15.73.44.98s.69.37,1.19.37c.66,0,1.21-.23,1.67-.7s.68-1.05.68-1.76ZM128.58,93.31c-.01-.8-.2-1.41-.57-1.84-.37-.43-.88-.65-1.54-.65s-1.19.23-1.65.68-.74,1.06-.85,1.81h4.61Z"/><path class="Bærekraftsforskning_en_linje_sort(NO)_svg__cls-4" d="M136.46,91.25c-.24-.18-.58-.27-1.03-.27-.58,0-1.07.27-1.46.82s-.59,1.29-.59,2.24v4.33h-1.36v-8.5h1.36v1.75h.03c.19-.6.49-1.06.89-1.4s.84-.5,1.34-.5c.35,0,.63.04.81.12v1.41Z"/><path class="Bærekraftsforskning_en_linje_sort(NO)_svg__cls-4" d="M144.77,94.47h-6c.02.95.28,1.68.76,2.19.49.52,1.16.77,2.01.77.96,0,1.84-.32,2.64-.95v1.28c-.75.54-1.73.81-2.96.81s-2.14-.39-2.83-1.16c-.69-.77-1.03-1.86-1.03-3.26,0-1.32.38-2.4,1.12-3.23.75-.83,1.68-1.25,2.79-1.25s1.97.36,2.58,1.08.91,1.72.91,3v.71ZM143.38,93.31c0-.79-.2-1.4-.57-1.83-.37-.44-.89-.66-1.56-.66s-1.19.23-1.63.69c-.45.46-.73,1.06-.83,1.8h4.59Z"/><path class="Bærekraftsforskning_en_linje_sort(NO)_svg__cls-4" d="M153.88,98.38h-1.91l-3.75-4.08h-.03v4.08h-1.36v-12.58h1.36v7.98h.03l3.57-3.89h1.78l-3.94,4.1,4.25,4.4Z"/><path class="Bærekraftsforskning_en_linje_sort(NO)_svg__cls-4" d="M159.71,91.25c-.24-.18-.58-.27-1.03-.27-.58,0-1.07.27-1.46.82-.39.55-.58,1.29-.58,2.24v4.33h-1.36v-8.5h1.36v1.75h.03c.19-.6.49-1.06.89-1.4s.84-.5,1.34-.5c.35,0,.63.04.81.12v1.41Z"/><path class="Bærekraftsforskning_en_linje_sort(NO)_svg__cls-4" d="M167.27,98.38h-1.36v-1.33h-.03c-.59,1.02-1.46,1.53-2.62,1.53-.85,0-1.51-.22-1.99-.67-.48-.45-.72-1.04-.72-1.79,0-1.59.93-2.51,2.81-2.77l2.55-.36c0-1.45-.58-2.17-1.75-2.17-1.02,0-1.95.35-2.77,1.05v-1.39c.83-.53,1.8-.8,2.89-.8,2,0,3,1.06,3,3.17v5.53ZM165.91,94.08l-2.05.28c-.63.09-1.11.25-1.43.47-.32.22-.48.62-.48,1.19,0,.42.15.75.44,1.02.3.26.69.39,1.18.39.67,0,1.23-.24,1.67-.71.44-.47.66-1.07.66-1.8v-.85Z"/><path class="Bærekraftsforskning_en_linje_sort(NO)_svg__cls-4" d="M174.04,86.99c-.27-.15-.57-.22-.91-.22-.95,0-1.43.6-1.43,1.8v1.31h1.99v1.16h-1.99v7.34h-1.35v-7.34h-1.45v-1.16h1.45v-1.38c0-.89.26-1.59.77-2.11.51-.52,1.16-.78,1.93-.78.41,0,.74.05.99.15v1.23Z"/><path class="Bærekraftsforskning_en_linje_sort(NO)_svg__cls-4" d="M179.1,98.29c-.32.18-.74.27-1.27.27-1.49,0-2.23-.83-2.23-2.49v-5.03h-1.46v-1.16h1.46v-2.08l1.36-.44v2.52h2.14v1.16h-2.14v4.79c0,.57.1.98.29,1.22.19.24.52.37.96.37.34,0,.64-.09.89-.28v1.16Z"/><path class="Bærekraftsforskning_en_linje_sort(NO)_svg__cls-4" d="M180.41,98.07v-1.46c.74.55,1.56.82,2.45.82,1.2,0,1.79-.4,1.79-1.2,0-.23-.05-.42-.15-.58-.1-.16-.24-.3-.41-.42s-.38-.23-.62-.33c-.23-.1-.49-.2-.76-.3-.38-.15-.71-.3-.99-.45-.29-.15-.52-.32-.71-.51-.19-.19-.33-.41-.43-.65-.1-.24-.14-.53-.14-.86,0-.4.09-.75.27-1.06.18-.31.43-.56.73-.77.3-.21.65-.36,1.04-.47.39-.11.79-.16,1.21-.16.74,0,1.39.13,1.97.38v1.38c-.62-.41-1.34-.61-2.16-.61-.25,0-.48.03-.69.09-.2.06-.38.14-.53.25-.15.11-.26.23-.34.38-.08.15-.12.31-.12.49,0,.22.04.41.12.56.08.15.2.28.35.4.15.12.34.22.56.32.22.09.47.2.76.31.38.14.71.29,1.01.44s.55.32.76.51c.21.19.37.41.49.66.11.25.17.54.17.89,0,.42-.09.79-.28,1.1-.19.31-.43.57-.74.77-.31.2-.67.36-1.07.46s-.83.15-1.27.15c-.88,0-1.63-.17-2.28-.51Z"/><path class="Bærekraftsforskning_en_linje_sort(NO)_svg__cls-4" d="M200.2,98.38h-1.36v-4.88c0-.94-.15-1.62-.44-2.04-.29-.42-.78-.63-1.47-.63-.58,0-1.07.27-1.48.8-.41.53-.61,1.17-.61,1.91v4.85h-1.36v-5.05c0-1.67-.64-2.51-1.93-2.51-.6,0-1.09.25-1.48.75s-.58,1.15-.58,1.96v4.85h-1.36v-8.5h1.36v1.34h.03c.6-1.03,1.48-1.54,2.64-1.54.58,0,1.09.16,1.52.49.43.32.73.75.89,1.27.63-1.17,1.57-1.76,2.82-1.76,1.87,0,2.81,1.15,2.81,3.46v5.24Z"/><path class="Bærekraftsforskning_en_linje_sort(NO)_svg__cls-4" d="M208.86,98.38h-1.36v-1.33h-.03c-.59,1.02-1.46,1.53-2.61,1.53-.85,0-1.51-.22-1.99-.67-.48-.45-.72-1.04-.72-1.79,0-1.59.94-2.51,2.81-2.77l2.55-.36c0-1.45-.58-2.17-1.75-2.17-1.02,0-1.95.35-2.77,1.05v-1.39c.84-.53,1.8-.8,2.89-.8,2,0,3,1.06,3,3.17v5.53ZM207.5,94.08l-2.05.28c-.63.09-1.11.25-1.43.47-.32.22-.48.62-.48,1.19,0,.42.15.75.44,1.02s.69.39,1.18.39c.68,0,1.23-.24,1.67-.71.44-.47.66-1.07.66-1.8v-.85ZM205.69,88.61c-.48,0-.88-.15-1.2-.44-.32-.29-.48-.67-.48-1.14,0-.5.16-.9.49-1.2s.74-.45,1.25-.45.9.15,1.21.45.47.68.47,1.15-.17.85-.51,1.16-.75.46-1.24.46ZM205.69,86.06c-.27,0-.49.09-.66.27-.18.18-.27.4-.27.67,0,.62.31.93.93.93.28,0,.51-.09.69-.27s.27-.4.27-.66-.09-.5-.27-.67c-.18-.18-.41-.27-.69-.27Z"/><path class="Bærekraftsforskning_en_linje_sort(NO)_svg__cls-4" d="M212.79,98.38h-1.36v-12.58h1.36v12.58Z"/></g></svg>