<?xml version="1.0" encoding="UTF-8"?><svg id="Bærekraftsforskning_to_linjer_sort(EN)_svg__Layer_2" xmlns="http://www.w3.org/2000/svg" viewBox="0 0 571 150"><defs><style>.Bærekraftsforskning_to_linjer_sort(EN)_svg__cls-4{stroke-width:0px}</style></defs><g id="Bærekraftsforskning_to_linjer_sort(EN)_svg__Layer_1-2"><path d="M500.52,111.53l-5.33,28.57s10.17,2.42,20.64,0l-5.47-28.57s-5,.48-9.84,0Z" style="fill:#fd6925;stroke-width:0px"/><path d="M514.37,110.47l5.4,28.55s10.35-1.43,19.23-7.49l-15.46-24.64s-4.49,2.27-9.17,3.57Z" style="fill:#a21942;stroke-width:0px"/><path d="M526.68,104.76l15.38,24.65s9.13-5.09,15.21-13.95l-23.34-17.36s-3.36,3.74-7.26,6.65Z" style="fill:#fcc30b;stroke-width:0px"/><path d="M536.18,95.19l23.45,17.17s6.58-8.12,8.93-18.6l-28.12-7.43s-1.73,4.72-4.26,8.87Z" style="fill:#26bde2;stroke-width:0px"/><path d="M541.22,82.25l28.08,7.49s3.19-9.95,1.58-20.58l-28.9,3.27s.1,5.02-.75,9.81Z" style="fill:#ff3a21;stroke-width:0px"/><path d="M541.4,68.68l28.88-3.19s-.63-10.43-5.99-19.75l-25.75,13.52s1.91,4.65,2.86,9.42Z" style="fill:#c5192d;stroke-width:0px"/><path d="M537.67,56.04l25.99-13s-4.21-9.57-12.46-16.45l-19.47,21.61s3.41,3.69,5.94,7.85Z" style="fill:#4c9f38;stroke-width:0px"/><path d="M528.64,45.68l19.26-21.76s-7.48-7.3-17.7-10.61l-10,27.31s4.54,2.16,8.44,5.06Z" style="fill:#dda63a;stroke-width:0px"/><path d="M516.67,39.74l10.04-27.27s-9.62-4.09-20.35-3.46l.6,29.08s5.01.36,9.7,1.65Z" style="fill:#e5243b;stroke-width:0px"/><path d="M503.15,37.95l-.54-29.05s-10.45-.32-20.22,4.16l11.12,26.88s4.8-1.48,9.64-1.98Z" style="fill:#19486a;stroke-width:0px"/><path d="M489.76,41.27l-10.98-26.9s-9.86,3.47-17.36,11.17l20.06,21.06s3.94-3.11,8.28-5.33Z" style="stroke-width:0px;fill:#00689d"/><path d="M478.83,49.33l-19.98-21.1s-7.93,6.8-12.13,16.7l26.33,12.36s2.55-4.33,5.79-7.96Z" style="fill:#56c02b;stroke-width:0px"/><path d="M471.62,60.02l-25.64-13.68s-5.37,8.97-6.21,19.68l28.89,3.38s1.04-4.92,2.96-9.39Z" style="fill:#0a97d9;stroke-width:0px"/><path d="M468.36,73.2l-28.85-3.46s-1.76,10.3,1.34,20.6l28.15-7.31s-.81-4.96-.64-9.82Z" style="fill:#3f7e44;stroke-width:0px"/><path d="M469.87,86.59l-28.07,7.52s2.2,10.22,8.9,18.62l23.41-17.26s-2.59-4.3-4.25-8.88Z" style="fill:#bf8b2e;stroke-width:0px"/><path d="M476.8,98.63l-23.43,17.19s5.76,8.72,15.05,14.12l15.56-24.57s-3.98-3.07-7.18-6.73Z" style="fill:#fd9d24;stroke-width:0px"/><path d="M487.26,107.27l-15.61,24.51s8.53,6.04,19.15,7.71l5.59-28.54s-4.82-1.42-9.13-3.68Z" style="fill:#dd1367;stroke-width:0px"/><line x1="394.34" x2="394.34" y2="150" style="fill:none;stroke:#1d1d1b;stroke-miterlimit:10;stroke-width:.75px"/></g><g id="Bærekraftsforskning_to_linjer_sort(EN)_svg__Layer_2-2"><path class="Bærekraftsforskning_to_linjer_sort(EN)_svg__cls-4" d="M8.38,29.33v4.84h7.99v6.34h-7.99v9.38H.28v-26.89h16.86v6.34h-8.76Z"/><path class="Bærekraftsforskning_to_linjer_sort(EN)_svg__cls-4" d="M21.06,49.89v-26.89h8.1v26.89h-8.1Z"/><path class="Bærekraftsforskning_to_linjer_sort(EN)_svg__cls-4" d="M53.24,49.89l-9.49-12.98c-.75-1.03-1.36-1.95-1.84-2.78h-.07c.07,1.33.11,2.81.11,4.46v11.29h-7.5v-26.89h7.65l9.1,12.34c.11.16.25.36.41.58.16.22.32.46.49.69.16.24.32.47.46.69.14.23.25.43.33.6h.08c-.08-.55-.11-1.5-.11-2.85v-12.06h7.5v26.89h-7.11Z"/><path class="Bærekraftsforskning_to_linjer_sort(EN)_svg__cls-4" d="M90.99,36.1c0,2.72-.57,5.14-1.72,7.23-1.14,2.09-2.78,3.71-4.9,4.85-2.13,1.14-4.58,1.71-7.35,1.71h-11.38v-26.89h11.14c9.48,0,14.22,4.37,14.22,13.11ZM82.38,36.18c0-1.31-.27-2.49-.8-3.54-.53-1.05-1.29-1.86-2.28-2.44-.99-.57-2.15-.86-3.49-.86h-2.08v14.22h2.27c1.94,0,3.49-.67,4.64-2,1.16-1.33,1.73-3.12,1.73-5.37Z"/><path class="Bærekraftsforskning_to_linjer_sort(EN)_svg__cls-4" d="M124.13,41.75c0,1.79-.48,3.35-1.43,4.67-.96,1.33-2.3,2.31-4.02,2.96s-3.8.98-6.23.98c-2.81,0-5.39-.47-7.73-1.43v-7.37c1.13.83,2.37,1.49,3.73,2s2.63.76,3.81.76c.89,0,1.58-.16,2.06-.48.49-.32.73-.78.73-1.4,0-.44-.12-.82-.37-1.15-.24-.33-.61-.64-1.11-.93s-1.41-.68-2.75-1.18c-4.33-1.66-6.49-4.35-6.49-8.06,0-2.6.99-4.68,2.96-6.24,1.98-1.56,4.63-2.33,7.95-2.33.94,0,1.8.04,2.59.11.79.08,1.5.17,2.15.28.64.11,1.55.33,2.71.64v6.84c-2.26-1.24-4.49-1.86-6.68-1.86-.9,0-1.63.17-2.18.51-.55.34-.83.8-.83,1.39s.22,1.03.67,1.4c.44.37,1.37.85,2.79,1.43,2.79,1.13,4.76,2.36,5.92,3.69,1.16,1.34,1.73,2.93,1.73,4.76Z"/><path class="Bærekraftsforskning_to_linjer_sort(EN)_svg__cls-4" d="M152.77,36.1c0,2.72-.57,5.14-1.72,7.23-1.14,2.09-2.78,3.71-4.9,4.85-2.13,1.14-4.58,1.71-7.35,1.71h-11.38v-26.89h11.14c9.48,0,14.22,4.37,14.22,13.11ZM144.16,36.18c0-1.31-.27-2.49-.8-3.54-.53-1.05-1.29-1.86-2.28-2.44-.99-.57-2.15-.86-3.49-.86h-2.08v14.22h2.27c1.94,0,3.49-.67,4.64-2,1.16-1.33,1.73-3.12,1.73-5.37Z"/><path class="Bærekraftsforskning_to_linjer_sort(EN)_svg__cls-4" d="M180.11,48.12c-1.01.58-2.53,1.09-4.54,1.55-2.01.46-3.93.68-5.76.68-4.71,0-8.35-1.18-10.92-3.54-2.56-2.36-3.84-5.66-3.84-9.91,0-2.85.65-5.38,1.94-7.6,1.29-2.21,3.12-3.89,5.47-5.04,2.35-1.15,5.12-1.73,8.31-1.73,2.34,0,4.83.33,7.48.99v7.07c-1.24-.56-2.43-.95-3.56-1.17-1.14-.22-2.38-.33-3.73-.33-2.23,0-4,.67-5.32,2.01-1.32,1.34-1.98,3.18-1.98,5.51s.55,3.99,1.66,5.25c1.11,1.26,2.65,1.89,4.64,1.89.93,0,1.61-.05,2.04-.15v-3.84h-5.16v-6.13h13.26v14.48Z"/><path class="Bærekraftsforskning_to_linjer_sort(EN)_svg__cls-4" d="M14.23,95.98l-2.01-5.79c-.39-1.14-.89-2.03-1.51-2.68-.62-.65-1.29-.97-2.02-.97h-.32v9.45H.28v-26.89h10.76c3.76,0,6.54.62,8.34,1.85s2.69,3.08,2.69,5.54c0,1.85-.52,3.4-1.57,4.65-1.04,1.25-2.6,2.16-4.66,2.72v.08c1.14.35,2.09.92,2.84,1.71.76.79,1.43,1.96,2.03,3.51l2.64,6.84h-9.13ZM13.46,77.62c0-.9-.27-1.61-.83-2.14-.55-.52-1.41-.79-2.59-.79h-1.67v6.15h1.46c1.09,0,1.96-.31,2.63-.92.66-.61.99-1.38.99-2.31Z"/><path class="Bærekraftsforskning_to_linjer_sort(EN)_svg__cls-4" d="M26.48,95.98v-26.89h16.75v6.34h-8.65v3.92h8.12v6.34h-8.12v3.96h9.26v6.34h-17.37Z"/><path class="Bærekraftsforskning_to_linjer_sort(EN)_svg__cls-4" d="M66.35,87.84c0,1.79-.48,3.34-1.43,4.67-.96,1.33-2.3,2.31-4.02,2.96s-3.8.97-6.23.97c-2.81,0-5.39-.47-7.73-1.43v-7.37c1.13.83,2.37,1.49,3.73,2,1.36.51,2.63.76,3.81.76.89,0,1.58-.16,2.06-.48s.73-.78.73-1.4c0-.44-.12-.82-.37-1.15s-.61-.64-1.11-.93-1.41-.68-2.75-1.18c-4.33-1.66-6.49-4.35-6.49-8.06,0-2.6.99-4.68,2.96-6.24,1.98-1.56,4.63-2.33,7.95-2.33.94,0,1.8.04,2.59.11.79.07,1.5.17,2.15.28.64.11,1.55.33,2.71.64v6.85c-2.26-1.24-4.49-1.86-6.68-1.86-.9,0-1.63.17-2.18.51-.55.34-.83.8-.83,1.39s.22,1.03.67,1.4c.44.37,1.37.85,2.79,1.43,2.79,1.13,4.76,2.36,5.92,3.69,1.16,1.34,1.73,2.93,1.73,4.76Z"/><path class="Bærekraftsforskning_to_linjer_sort(EN)_svg__cls-4" d="M69.63,95.98v-26.89h16.75v6.34h-8.65v3.92h8.12v6.34h-8.12v3.96h9.26v6.34h-17.37Z"/><path class="Bærekraftsforskning_to_linjer_sort(EN)_svg__cls-4" d="M107.68,95.98l-1.18-4.95h-8.03l-1.27,4.95h-8.76l9.26-26.89h10.05l8.72,26.89h-8.8ZM102.58,74.93h-.19c-.02.3-.11.79-.26,1.48-.15.69-.91,3.64-2.27,8.85h5.14l-1.88-7.31c-.26-1.08-.44-2.08-.54-3.02Z"/><path class="Bærekraftsforskning_to_linjer_sort(EN)_svg__cls-4" d="M133.58,95.98l-2.01-5.79c-.39-1.14-.89-2.03-1.51-2.68-.62-.65-1.29-.97-2.02-.97h-.32v9.45h-8.1v-26.89h10.76c3.76,0,6.54.62,8.34,1.85,1.79,1.23,2.69,3.08,2.69,5.54,0,1.85-.52,3.4-1.57,4.65s-2.6,2.16-4.66,2.72v.08c1.14.35,2.09.92,2.84,1.71.76.79,1.43,1.96,2.03,3.51l2.64,6.84h-9.13ZM132.81,77.62c0-.9-.27-1.61-.83-2.14-.55-.52-1.41-.79-2.59-.79h-1.67v6.15h1.46c1.09,0,1.96-.31,2.63-.92.66-.61.99-1.38.99-2.31Z"/><path class="Bærekraftsforskning_to_linjer_sort(EN)_svg__cls-4" d="M165.84,95.24c-2.23.8-4.79,1.2-7.71,1.2s-5.33-.55-7.41-1.64c-2.08-1.09-3.66-2.65-4.75-4.67-1.09-2.02-1.64-4.35-1.64-6.99,0-2.84.61-5.36,1.84-7.58,1.23-2.21,2.96-3.92,5.2-5.13,2.24-1.21,4.81-1.81,7.73-1.81,2.33,0,4.58.28,6.75.84v7.48c-.75-.45-1.64-.8-2.68-1.05-1.04-.25-2.09-.37-3.15-.37-2.2,0-3.94.63-5.2,1.89s-1.9,2.98-1.9,5.14.63,3.85,1.9,5.09c1.27,1.24,2.97,1.87,5.09,1.87,1.96,0,3.94-.5,5.94-1.5v7.22Z"/><path class="Bærekraftsforskning_to_linjer_sort(EN)_svg__cls-4" d="M187.43,95.98v-10.03h-9.3v10.03h-8.1v-26.89h8.1v9.96h9.3v-9.96h8.1v26.89h-8.1Z"/><path class="Bærekraftsforskning_to_linjer_sort(EN)_svg__cls-4" d="M15.46,121.32l-3.36,11.9h-1.64l-2.45-8.7c-.11-.37-.17-.78-.19-1.21h-.03c-.03.41-.11.81-.22,1.2l-2.47,8.72h-1.62l-3.49-11.9h1.54l2.53,9.13c.11.38.17.78.2,1.2h.04c.03-.29.11-.69.26-1.2l2.63-9.13h1.34l2.52,9.2c.09.32.16.69.2,1.11h.03c.02-.29.1-.67.22-1.15l2.43-9.16h1.51Z"/><path class="Bærekraftsforskning_to_linjer_sort(EN)_svg__cls-4" d="M23.21,129.32h-6c.02.95.28,1.68.76,2.19.49.52,1.16.77,2.01.77.96,0,1.84-.32,2.64-.95v1.28c-.75.54-1.74.81-2.96.81s-2.14-.39-2.83-1.16c-.69-.77-1.03-1.86-1.03-3.26,0-1.32.38-2.4,1.12-3.23s1.68-1.25,2.79-1.25,1.97.36,2.58,1.08.91,1.72.91,3v.71ZM21.81,128.16c0-.79-.19-1.4-.57-1.83-.37-.44-.89-.66-1.56-.66s-1.19.23-1.64.69c-.45.46-.72,1.06-.83,1.8h4.59Z"/><path class="Bærekraftsforskning_to_linjer_sort(EN)_svg__cls-4" d="M29.41,132.92v-1.46c.74.55,1.56.82,2.45.82,1.2,0,1.79-.4,1.79-1.2,0-.23-.05-.42-.15-.58-.1-.16-.24-.3-.41-.42s-.38-.23-.62-.33c-.23-.1-.49-.2-.76-.3-.38-.15-.71-.3-.99-.45-.29-.15-.52-.32-.71-.51-.19-.19-.33-.41-.43-.65-.1-.24-.14-.53-.14-.86,0-.4.09-.75.27-1.06.18-.31.43-.56.73-.77.3-.21.65-.36,1.04-.47.39-.11.79-.16,1.21-.16.74,0,1.39.13,1.97.38v1.38c-.62-.41-1.34-.61-2.16-.61-.25,0-.48.03-.69.09-.2.06-.38.14-.53.25-.15.1-.26.23-.34.38-.08.15-.12.31-.12.49,0,.22.04.41.12.56.08.15.2.28.35.4.15.12.34.22.56.32.22.09.47.2.76.31.38.14.71.29,1.01.44.3.15.55.32.76.51.21.19.37.41.49.66.11.25.17.54.17.89,0,.42-.09.79-.28,1.1-.19.31-.43.57-.74.77-.31.2-.67.36-1.07.46s-.83.15-1.27.15c-.88,0-1.63-.17-2.28-.51Z"/><path class="Bærekraftsforskning_to_linjer_sort(EN)_svg__cls-4" d="M44.01,133.23h-1.36v-1.34h-.03c-.56,1.03-1.44,1.54-2.62,1.54-2.03,0-3.04-1.21-3.04-3.62v-5.08h1.35v4.86c0,1.79.69,2.69,2.06,2.69.66,0,1.21-.25,1.64-.73.43-.49.64-1.13.64-1.92v-4.9h1.36v8.5Z"/><path class="Bærekraftsforskning_to_linjer_sort(EN)_svg__cls-4" d="M48.15,132h-.03v5.14h-1.36v-12.41h1.36v1.49h.03c.67-1.13,1.65-1.69,2.94-1.69,1.1,0,1.95.38,2.57,1.14s.92,1.78.92,3.06c0,1.42-.35,2.56-1.04,3.42-.69.85-1.64,1.28-2.84,1.28-1.1,0-1.95-.48-2.55-1.43ZM48.12,128.57v1.19c0,.7.23,1.3.68,1.79.46.49,1.04.73,1.74.73.82,0,1.47-.32,1.94-.95.47-.63.7-1.51.7-2.63,0-.95-.22-1.69-.66-2.22-.44-.54-1.03-.81-1.78-.81-.79,0-1.43.28-1.91.83-.48.55-.72,1.24-.72,2.07Z"/><path class="Bærekraftsforskning_to_linjer_sort(EN)_svg__cls-4" d="M58.15,132h-.03v5.14h-1.36v-12.41h1.36v1.49h.03c.67-1.13,1.65-1.69,2.94-1.69,1.1,0,1.95.38,2.57,1.14s.92,1.78.92,3.06c0,1.42-.35,2.56-1.04,3.42-.69.85-1.64,1.28-2.84,1.28-1.1,0-1.95-.48-2.55-1.43ZM58.11,128.57v1.19c0,.7.23,1.3.68,1.79.46.49,1.04.73,1.74.73.82,0,1.47-.32,1.94-.95.47-.63.7-1.51.7-2.63,0-.95-.22-1.69-.66-2.22-.44-.54-1.03-.81-1.78-.81-.79,0-1.43.28-1.91.83-.48.55-.72,1.24-.72,2.07Z"/><path class="Bærekraftsforskning_to_linjer_sort(EN)_svg__cls-4" d="M70.3,133.43c-1.26,0-2.26-.4-3.01-1.19-.75-.79-1.12-1.85-1.12-3.16,0-1.43.39-2.54,1.17-3.35.78-.8,1.83-1.2,3.16-1.2s2.26.39,2.97,1.17c.71.78,1.07,1.86,1.07,3.25s-.38,2.44-1.15,3.26c-.77.82-1.79,1.22-3.08,1.22ZM70.4,125.67c-.88,0-1.57.3-2.08.89-.51.59-.76,1.42-.76,2.46s.26,1.8.77,2.38c.51.58,1.2.87,2.07.87s1.56-.29,2.03-.85c.47-.57.71-1.38.71-2.43s-.24-1.88-.71-2.46-1.15-.86-2.03-.86Z"/><path class="Bærekraftsforskning_to_linjer_sort(EN)_svg__cls-4" d="M81.14,126.11c-.24-.18-.58-.27-1.03-.27-.58,0-1.07.27-1.46.82-.39.55-.58,1.29-.58,2.24v4.33h-1.36v-8.5h1.36v1.75h.03c.19-.6.49-1.06.89-1.4s.84-.5,1.34-.5c.35,0,.62.04.81.12v1.41Z"/><path class="Bærekraftsforskning_to_linjer_sort(EN)_svg__cls-4" d="M86.56,133.14c-.32.18-.74.27-1.27.27-1.49,0-2.23-.83-2.23-2.49v-5.03h-1.46v-1.16h1.46v-2.08l1.36-.44v2.52h2.14v1.16h-2.14v4.79c0,.57.1.98.29,1.22.19.24.51.37.96.37.34,0,.64-.09.89-.28v1.16Z"/><path class="Bærekraftsforskning_to_linjer_sort(EN)_svg__cls-4" d="M96.98,133.14c-.32.18-.74.27-1.27.27-1.49,0-2.23-.83-2.23-2.49v-5.03h-1.46v-1.16h1.46v-2.08l1.36-.44v2.52h2.14v1.16h-2.14v4.79c0,.57.1.98.29,1.22s.51.37.96.37c.34,0,.64-.09.89-.28v1.16Z"/><path class="Bærekraftsforskning_to_linjer_sort(EN)_svg__cls-4" d="M105.85,133.23h-1.36v-4.9c0-1.77-.66-2.66-1.98-2.66-.66,0-1.22.26-1.68.77-.45.51-.68,1.17-.68,1.97v4.81h-1.36v-12.58h1.36v5.5h.03c.65-1.07,1.58-1.61,2.79-1.61,1.91,0,2.87,1.15,2.87,3.46v5.24Z"/><path class="Bærekraftsforskning_to_linjer_sort(EN)_svg__cls-4" d="M115.25,129.32h-6c.02.95.28,1.68.76,2.19.49.52,1.16.77,2.01.77.96,0,1.84-.32,2.64-.95v1.28c-.75.54-1.74.81-2.96.81s-2.14-.39-2.83-1.16c-.69-.77-1.03-1.86-1.03-3.26,0-1.32.38-2.4,1.12-3.23s1.68-1.25,2.79-1.25,1.97.36,2.58,1.08.91,1.72.91,3v.71ZM113.85,128.16c0-.79-.19-1.4-.57-1.83-.37-.44-.89-.66-1.56-.66s-1.19.23-1.64.69c-.45.46-.72,1.06-.83,1.8h4.59Z"/><path class="Bærekraftsforskning_to_linjer_sort(EN)_svg__cls-4" d="M121.59,132.75v-1.64c.19.17.41.32.68.45.26.13.54.25.83.34.29.09.58.16.88.21.29.05.56.07.81.07.86,0,1.5-.16,1.92-.48.42-.32.63-.78.63-1.37,0-.32-.07-.6-.21-.84-.14-.24-.34-.46-.58-.65-.25-.2-.54-.38-.88-.56-.34-.18-.71-.37-1.1-.57-.42-.21-.8-.42-1.16-.64-.36-.21-.67-.45-.94-.71-.27-.26-.47-.55-.63-.88-.15-.33-.23-.71-.23-1.16,0-.54.12-1.01.36-1.42.24-.4.55-.73.94-.99.39-.26.83-.45,1.32-.58.5-.13,1-.19,1.51-.19,1.17,0,2.03.14,2.57.42v1.57c-.7-.49-1.61-.73-2.71-.73-.3,0-.61.03-.91.1-.3.06-.58.17-.81.31-.24.14-.43.33-.58.56-.15.23-.22.5-.22.83,0,.3.06.57.17.79.11.22.28.42.5.61.22.18.49.36.81.53.32.17.68.36,1.1.56.43.21.83.43,1.21.66.38.23.72.49,1,.77.29.28.52.59.68.94.17.34.25.74.25,1.18,0,.59-.12,1.08-.35,1.49-.23.41-.54.74-.93.99-.39.25-.84.44-1.35.55-.51.11-1.05.17-1.61.17-.19,0-.42-.02-.7-.05-.28-.03-.56-.07-.85-.13-.29-.06-.56-.13-.82-.22s-.46-.18-.62-.29Z"/><path class="Bærekraftsforskning_to_linjer_sort(EN)_svg__cls-4" d="M137.87,133.23h-1.36v-1.34h-.03c-.56,1.03-1.44,1.54-2.62,1.54-2.03,0-3.04-1.21-3.04-3.62v-5.08h1.35v4.86c0,1.79.69,2.69,2.06,2.69.66,0,1.21-.25,1.64-.73.43-.49.64-1.13.64-1.92v-4.9h1.36v8.5Z"/><path class="Bærekraftsforskning_to_linjer_sort(EN)_svg__cls-4" d="M140.1,132.92v-1.46c.74.55,1.56.82,2.45.82,1.2,0,1.79-.4,1.79-1.2,0-.23-.05-.42-.15-.58-.1-.16-.24-.3-.42-.42-.17-.12-.38-.23-.61-.33-.23-.1-.49-.2-.76-.3-.38-.15-.71-.3-.99-.45-.29-.15-.52-.32-.71-.51s-.33-.41-.43-.65c-.1-.24-.15-.53-.15-.86,0-.4.09-.75.27-1.06.18-.31.43-.56.73-.77.3-.21.65-.36,1.04-.47.39-.11.79-.16,1.21-.16.74,0,1.39.13,1.98.38v1.38c-.62-.41-1.34-.61-2.16-.61-.25,0-.48.03-.69.09-.2.06-.38.14-.53.25-.15.1-.26.23-.34.38s-.12.31-.12.49c0,.22.04.41.12.56.08.15.2.28.35.4.15.12.34.22.56.32.22.09.47.2.75.31.38.14.71.29,1.01.44.3.15.55.32.76.51.21.19.37.41.49.66.11.25.17.54.17.89,0,.42-.09.79-.28,1.1-.19.31-.43.57-.74.77-.31.2-.67.36-1.07.46-.4.1-.83.15-1.27.15-.87,0-1.63-.17-2.27-.51Z"/><path class="Bærekraftsforskning_to_linjer_sort(EN)_svg__cls-4" d="M151.77,133.14c-.32.18-.74.27-1.27.27-1.49,0-2.23-.83-2.23-2.49v-5.03h-1.46v-1.16h1.46v-2.08l1.36-.44v2.52h2.14v1.16h-2.14v4.79c0,.57.1.98.29,1.22.19.24.51.37.96.37.34,0,.64-.09.89-.28v1.16Z"/><path class="Bærekraftsforskning_to_linjer_sort(EN)_svg__cls-4" d="M159.67,133.23h-1.36v-1.33h-.03c-.59,1.02-1.46,1.53-2.61,1.53-.85,0-1.51-.22-1.99-.67-.48-.45-.72-1.04-.72-1.79,0-1.59.94-2.51,2.81-2.77l2.55-.36c0-1.45-.58-2.17-1.75-2.17-1.02,0-1.95.35-2.77,1.05v-1.39c.84-.53,1.8-.8,2.89-.8,2,0,3,1.06,3,3.17v5.53ZM158.31,128.93l-2.05.28c-.63.09-1.11.25-1.43.47-.32.22-.48.62-.48,1.19,0,.42.15.75.45,1.02.29.26.69.39,1.18.39.68,0,1.23-.24,1.67-.71.44-.47.66-1.07.66-1.8v-.85Z"/><path class="Bærekraftsforskning_to_linjer_sort(EN)_svg__cls-4" d="M162.94,122.57c-.24,0-.45-.08-.62-.25s-.26-.38-.26-.63.09-.47.26-.63.38-.25.62-.25.46.08.63.25.26.38.26.63-.09.45-.26.62c-.17.17-.39.26-.63.26ZM163.6,133.23h-1.36v-8.5h1.36v8.5Z"/><path class="Bærekraftsforskning_to_linjer_sort(EN)_svg__cls-4" d="M173.41,133.23h-1.36v-4.85c0-1.8-.66-2.71-1.97-2.71-.68,0-1.24.26-1.69.77-.45.51-.67,1.16-.67,1.94v4.85h-1.36v-8.5h1.36v1.41h.03c.64-1.07,1.57-1.61,2.79-1.61.93,0,1.64.3,2.13.9.49.6.74,1.47.74,2.6v5.2Z"/><path class="Bærekraftsforskning_to_linjer_sort(EN)_svg__cls-4" d="M182.06,133.23h-1.36v-1.33h-.03c-.59,1.02-1.46,1.53-2.62,1.53-.85,0-1.51-.22-1.99-.67-.48-.45-.72-1.04-.72-1.79,0-1.59.93-2.51,2.81-2.77l2.55-.36c0-1.45-.58-2.17-1.75-2.17-1.02,0-1.95.35-2.77,1.05v-1.39c.83-.53,1.8-.8,2.89-.8,2,0,3,1.06,3,3.17v5.53ZM180.7,128.93l-2.05.28c-.63.09-1.11.25-1.43.47-.32.22-.48.62-.48,1.19,0,.42.15.75.44,1.02.3.26.69.39,1.18.39.67,0,1.23-.24,1.67-.71.44-.47.66-1.07.66-1.8v-.85Z"/><path class="Bærekraftsforskning_to_linjer_sort(EN)_svg__cls-4" d="M186.02,132h-.03v1.23h-1.36v-12.58h1.36v5.58h.03c.67-1.13,1.65-1.69,2.94-1.69,1.09,0,1.94.38,2.56,1.14.62.76.93,1.78.93,3.06,0,1.42-.35,2.56-1.04,3.42-.69.85-1.64,1.28-2.84,1.28-1.12,0-1.97-.48-2.55-1.43ZM185.99,128.57v1.19c0,.7.23,1.3.68,1.79.46.49,1.04.73,1.74.73.82,0,1.47-.32,1.94-.95s.7-1.51.7-2.63c0-.95-.22-1.69-.66-2.22-.44-.54-1.03-.81-1.78-.81-.79,0-1.43.28-1.91.83-.48.55-.72,1.24-.72,2.07Z"/><path class="Bærekraftsforskning_to_linjer_sort(EN)_svg__cls-4" d="M195.98,133.23h-1.36v-12.58h1.36v12.58Z"/><path class="Bærekraftsforskning_to_linjer_sort(EN)_svg__cls-4" d="M205.57,129.32h-6c.02.95.28,1.68.76,2.19.49.52,1.16.77,2.01.77.96,0,1.84-.32,2.64-.95v1.28c-.75.54-1.73.81-2.96.81s-2.14-.39-2.83-1.16c-.69-.77-1.03-1.86-1.03-3.26,0-1.32.38-2.4,1.12-3.23.75-.83,1.68-1.25,2.79-1.25s1.97.36,2.58,1.08c.61.72.91,1.72.91,3v.71ZM204.17,128.16c0-.79-.2-1.4-.57-1.83-.37-.44-.89-.66-1.56-.66s-1.19.23-1.64.69c-.45.46-.73,1.06-.83,1.8h4.59Z"/><path class="Bærekraftsforskning_to_linjer_sort(EN)_svg__cls-4" d="M212.47,133.23v-11.9h3.29c4.19,0,6.29,1.93,6.29,5.8,0,1.84-.58,3.31-1.75,4.43-1.17,1.12-2.72,1.67-4.68,1.67h-3.15ZM213.86,122.59v9.38h1.78c1.56,0,2.78-.42,3.64-1.25.87-.83,1.3-2.02,1.3-3.55,0-3.05-1.62-4.57-4.86-4.57h-1.86Z"/><path class="Bærekraftsforskning_to_linjer_sort(EN)_svg__cls-4" d="M231.04,129.32h-6c.02.95.28,1.68.76,2.19.49.52,1.16.77,2.01.77.96,0,1.84-.32,2.64-.95v1.28c-.75.54-1.73.81-2.96.81s-2.14-.39-2.83-1.16c-.69-.77-1.03-1.86-1.03-3.26,0-1.32.38-2.4,1.12-3.23.75-.83,1.68-1.25,2.79-1.25s1.97.36,2.58,1.08c.61.72.91,1.72.91,3v.71ZM229.64,128.16c0-.79-.2-1.4-.57-1.83-.37-.44-.89-.66-1.56-.66s-1.19.23-1.64.69c-.45.46-.73,1.06-.83,1.8h4.59Z"/><path class="Bærekraftsforskning_to_linjer_sort(EN)_svg__cls-4" d="M239.78,124.73l-3.39,8.5h-1.34l-3.22-8.5h1.49l2.16,6.18c.16.45.26.85.3,1.19h.03c.05-.43.14-.81.27-1.15l2.26-6.21h1.44Z"/><path class="Bærekraftsforskning_to_linjer_sort(EN)_svg__cls-4" d="M248.07,129.32h-6c.02.95.28,1.68.76,2.19.49.52,1.16.77,2.01.77.96,0,1.84-.32,2.64-.95v1.28c-.75.54-1.73.81-2.96.81s-2.14-.39-2.83-1.16c-.69-.77-1.03-1.86-1.03-3.26,0-1.32.38-2.4,1.12-3.23.75-.83,1.68-1.25,2.79-1.25s1.97.36,2.58,1.08c.61.72.91,1.72.91,3v.71ZM246.67,128.16c0-.79-.2-1.4-.57-1.83-.37-.44-.89-.66-1.56-.66s-1.19.23-1.64.69c-.45.46-.73,1.06-.83,1.8h4.59Z"/><path class="Bærekraftsforskning_to_linjer_sort(EN)_svg__cls-4" d="M251.49,133.23h-1.36v-12.58h1.36v12.58Z"/><path class="Bærekraftsforskning_to_linjer_sort(EN)_svg__cls-4" d="M257.8,133.43c-1.26,0-2.26-.4-3.01-1.19-.75-.79-1.12-1.85-1.12-3.16,0-1.43.39-2.54,1.17-3.35.78-.8,1.83-1.2,3.16-1.2s2.26.39,2.97,1.17c.71.78,1.07,1.86,1.07,3.25s-.38,2.44-1.15,3.26c-.77.82-1.79,1.22-3.08,1.22ZM257.9,125.67c-.88,0-1.57.3-2.08.89-.51.59-.76,1.42-.76,2.46s.26,1.8.77,2.38c.51.58,1.2.87,2.07.87s1.56-.29,2.03-.85c.47-.57.71-1.38.71-2.43s-.24-1.88-.71-2.46-1.15-.86-2.03-.86Z"/><path class="Bærekraftsforskning_to_linjer_sort(EN)_svg__cls-4" d="M265.6,132h-.03v5.14h-1.36v-12.41h1.36v1.49h.03c.67-1.13,1.65-1.69,2.94-1.69,1.1,0,1.95.38,2.57,1.14s.92,1.78.92,3.06c0,1.42-.35,2.56-1.04,3.42-.69.85-1.64,1.28-2.84,1.28-1.1,0-1.95-.48-2.55-1.43ZM265.57,128.57v1.19c0,.7.23,1.3.68,1.79.46.49,1.04.73,1.74.73.82,0,1.47-.32,1.94-.95.47-.63.7-1.51.7-2.63,0-.95-.22-1.69-.66-2.22-.44-.54-1.03-.81-1.78-.81-.79,0-1.43.28-1.91.83-.48.55-.72,1.24-.72,2.07Z"/><path class="Bærekraftsforskning_to_linjer_sort(EN)_svg__cls-4" d="M286.27,133.23h-1.36v-4.88c0-.94-.14-1.62-.44-2.04s-.78-.63-1.46-.63c-.58,0-1.07.27-1.48.8-.41.53-.61,1.17-.61,1.91v4.85h-1.36v-5.05c0-1.67-.64-2.51-1.93-2.51-.6,0-1.09.25-1.48.75-.39.5-.58,1.15-.58,1.96v4.85h-1.36v-8.5h1.36v1.34h.03c.6-1.03,1.48-1.54,2.64-1.54.58,0,1.09.16,1.52.49.43.32.73.75.89,1.27.63-1.17,1.57-1.76,2.82-1.76,1.87,0,2.8,1.15,2.8,3.46v5.24Z"/><path class="Bærekraftsforskning_to_linjer_sort(EN)_svg__cls-4" d="M295.67,129.32h-6c.02.95.28,1.68.76,2.19.49.52,1.16.77,2.01.77.96,0,1.84-.32,2.64-.95v1.28c-.75.54-1.74.81-2.96.81s-2.14-.39-2.83-1.16c-.69-.77-1.03-1.86-1.03-3.26,0-1.32.38-2.4,1.12-3.23s1.68-1.25,2.79-1.25,1.97.36,2.58,1.08.91,1.72.91,3v.71ZM294.28,128.16c0-.79-.19-1.4-.57-1.83-.37-.44-.89-.66-1.56-.66s-1.19.23-1.64.69c-.45.46-.72,1.06-.83,1.8h4.59Z"/><path class="Bærekraftsforskning_to_linjer_sort(EN)_svg__cls-4" d="M304.79,133.23h-1.36v-4.85c0-1.8-.66-2.71-1.98-2.71-.68,0-1.24.26-1.69.77-.45.51-.67,1.16-.67,1.94v4.85h-1.36v-8.5h1.36v1.41h.03c.64-1.07,1.57-1.61,2.79-1.61.93,0,1.64.3,2.13.9.49.6.74,1.47.74,2.6v5.2Z"/><path class="Bærekraftsforskning_to_linjer_sort(EN)_svg__cls-4" d="M311.3,133.14c-.32.18-.74.27-1.27.27-1.49,0-2.23-.83-2.23-2.49v-5.03h-1.46v-1.16h1.46v-2.08l1.36-.44v2.52h2.14v1.16h-2.14v4.79c0,.57.1.98.29,1.22.19.24.52.37.96.37.34,0,.64-.09.89-.28v1.16Z"/><path class="Bærekraftsforskning_to_linjer_sort(EN)_svg__cls-4" d="M325.03,132.55c0,3.12-1.49,4.68-4.48,4.68-1.05,0-1.97-.2-2.76-.6v-1.36c.96.53,1.87.8,2.74.8,2.09,0,3.14-1.11,3.14-3.34v-.93h-.03c-.65,1.08-1.62,1.63-2.92,1.63-1.06,0-1.91-.38-2.55-1.13-.64-.76-.97-1.77-.97-3.04,0-1.44.35-2.59,1.04-3.44.69-.85,1.64-1.28,2.85-1.28,1.14,0,1.99.46,2.55,1.38h.03v-1.18h1.36v7.82ZM323.66,129.38v-1.25c0-.67-.23-1.25-.68-1.74-.46-.48-1.03-.72-1.71-.72-.84,0-1.5.31-1.98.92s-.71,1.47-.71,2.57c0,.95.23,1.7.68,2.27.46.57,1.06.85,1.81.85s1.38-.27,1.86-.81.72-1.24.72-2.08Z"/><path class="Bærekraftsforskning_to_linjer_sort(EN)_svg__cls-4" d="M331.33,133.43c-1.26,0-2.26-.4-3.01-1.19-.75-.79-1.12-1.85-1.12-3.16,0-1.43.39-2.54,1.17-3.35.78-.8,1.83-1.2,3.16-1.2s2.26.39,2.97,1.17c.71.78,1.07,1.86,1.07,3.25s-.38,2.44-1.15,3.26-1.79,1.22-3.08,1.22ZM331.43,125.67c-.87,0-1.57.3-2.08.89s-.76,1.42-.76,2.46.26,1.8.77,2.38c.52.58,1.2.87,2.07.87s1.56-.29,2.03-.85c.47-.57.71-1.38.71-2.43s-.24-1.88-.71-2.46c-.47-.58-1.15-.86-2.03-.86Z"/><path class="Bærekraftsforskning_to_linjer_sort(EN)_svg__cls-4" d="M343.83,133.23h-1.36v-1.33h-.03c-.59,1.02-1.46,1.53-2.62,1.53-.85,0-1.51-.22-1.99-.67-.48-.45-.72-1.04-.72-1.79,0-1.59.93-2.51,2.81-2.77l2.55-.36c0-1.45-.58-2.17-1.75-2.17-1.02,0-1.95.35-2.77,1.05v-1.39c.83-.53,1.8-.8,2.89-.8,2,0,3,1.06,3,3.17v5.53ZM342.47,128.93l-2.05.28c-.63.09-1.11.25-1.43.47-.32.22-.48.62-.48,1.19,0,.42.15.75.44,1.02.3.26.69.39,1.18.39.67,0,1.23-.24,1.67-.71.44-.47.66-1.07.66-1.8v-.85Z"/><path class="Bærekraftsforskning_to_linjer_sort(EN)_svg__cls-4" d="M347.75,133.23h-1.36v-12.58h1.36v12.58Z"/><path class="Bærekraftsforskning_to_linjer_sort(EN)_svg__cls-4" d="M349.99,132.92v-1.46c.74.55,1.56.82,2.45.82,1.2,0,1.79-.4,1.79-1.2,0-.23-.05-.42-.15-.58-.1-.16-.24-.3-.42-.42-.17-.12-.38-.23-.61-.33s-.49-.2-.76-.3c-.38-.15-.71-.3-.99-.45s-.52-.32-.71-.51-.33-.41-.43-.65c-.1-.24-.15-.53-.15-.86,0-.4.09-.75.27-1.06.18-.31.43-.56.73-.77.3-.21.65-.36,1.04-.47.39-.11.79-.16,1.21-.16.74,0,1.39.13,1.98.38v1.38c-.63-.41-1.34-.61-2.16-.61-.25,0-.48.03-.69.09-.21.06-.38.14-.53.25s-.26.23-.34.38c-.08.15-.12.31-.12.49,0,.22.04.41.12.56.08.15.2.28.35.4.16.12.34.22.56.32.22.09.47.2.76.31.38.14.71.29,1.01.44.3.15.55.32.76.51.21.19.37.41.49.66.11.25.17.54.17.89,0,.42-.09.79-.28,1.1s-.43.57-.74.77c-.31.2-.67.36-1.07.46-.4.1-.83.15-1.27.15-.88,0-1.63-.17-2.27-.51Z"/></g></svg>