<?xml version="1.0" encoding="UTF-8"?><svg id="Layer_2" xmlns="http://www.w3.org/2000/svg" viewBox="0 0 622.89 122.63"><defs><style>.cls-1{fill:#56c02b;}.cls-2{fill:#0a97d9;}.cls-3{fill:#4c9f38;}.cls-4{fill:#a21942;}.cls-5{fill:#26bde2;}.cls-6{fill:#ff3a21;}.cls-7{fill:none;stroke:#1d1d1b;stroke-miterlimit:10;stroke-width:.75px;}.cls-8{fill:#3f7e44;}.cls-9{fill:#dd1367;}.cls-10{fill:#bf8b2e;}.cls-11{fill:#dda63a;}.cls-12{fill:#fcc30b;}.cls-13{fill:#00689d;}.cls-14{fill:#c5192d;}.cls-15{fill:#19486a;}.cls-16{fill:#fd6925;}.cls-17{fill:#fd9d24;}.cls-18{fill:#e5243b;}</style></defs><g id="Layer_1-2"><path d="m9.18,53.54v5.29h8.74v6.93h-8.74v10.25H.32v-29.41h18.44v6.93h-9.58Z"/><path d="m23.05,76.02v-29.41h8.86v29.41h-8.86Z"/><path d="m58.24,76.02l-10.38-14.19c-.82-1.12-1.49-2.13-2.01-3.04h-.08c.08,1.45.12,3.08.12,4.88v12.35h-8.2v-29.41h8.37l9.95,13.49c.12.18.27.39.45.64s.36.5.53.76.35.51.5.76c.16.25.28.46.36.66h.08c-.08-.6-.12-1.64-.12-3.12v-13.19h8.2v29.41h-7.77Z"/><path d="m99.52,60.95c0,2.98-.62,5.62-1.88,7.91-1.25,2.29-3.04,4.06-5.36,5.3s-5,1.87-8.04,1.87h-12.45v-29.41h12.18c10.36,0,15.54,4.78,15.54,14.33Zm-9.41.08c0-1.44-.29-2.73-.87-3.88-.58-1.15-1.41-2.04-2.49-2.67s-2.35-.94-3.81-.94h-2.28v15.54h2.48c2.12,0,3.81-.73,5.08-2.18,1.27-1.46,1.9-3.42,1.9-5.88Z"/><path d="m135.76,67.12c0,1.96-.52,3.66-1.57,5.11-1.04,1.45-2.51,2.53-4.4,3.24s-4.16,1.07-6.81,1.07c-3.08,0-5.89-.52-8.45-1.56v-8.06c1.23.9,2.59,1.63,4.08,2.18,1.49.55,2.88.83,4.16.83.97,0,1.72-.17,2.26-.52.53-.35.8-.86.8-1.53,0-.48-.13-.9-.4-1.26-.27-.36-.67-.7-1.21-1.02-.54-.31-1.54-.75-3-1.29-4.73-1.82-7.1-4.76-7.1-8.82,0-2.84,1.08-5.12,3.24-6.82,2.16-1.7,5.06-2.55,8.7-2.55,1.03,0,1.97.04,2.83.12s1.64.18,2.35.31c.71.12,1.69.36,2.96.7v7.49c-2.47-1.35-4.91-2.03-7.3-2.03-.98,0-1.78.18-2.38.55s-.9.88-.9,1.52.24,1.12.73,1.53c.49.4,1.5.93,3.05,1.57,3.05,1.23,5.21,2.58,6.47,4.04,1.27,1.46,1.9,3.2,1.9,5.21Z"/><path d="m167.07,60.95c0,2.98-.62,5.62-1.88,7.91-1.25,2.29-3.04,4.06-5.36,5.3s-5,1.87-8.04,1.87h-12.45v-29.41h12.18c10.36,0,15.54,4.78,15.54,14.33Zm-9.41.08c0-1.44-.29-2.73-.87-3.88-.58-1.15-1.41-2.04-2.49-2.67s-2.35-.94-3.81-.94h-2.28v15.54h2.48c2.12,0,3.81-.73,5.08-2.18,1.27-1.46,1.9-3.42,1.9-5.88Z"/><path d="m196.97,74.09c-1.11.63-2.76,1.19-4.96,1.69-2.2.5-4.3.75-6.3.75-5.15,0-9.13-1.29-11.94-3.87-2.8-2.58-4.2-6.19-4.2-10.84,0-3.12.71-5.89,2.12-8.31,1.41-2.42,3.41-4.26,5.98-5.52s5.6-1.89,9.08-1.89c2.56,0,5.28.36,8.18,1.09v7.73c-1.35-.62-2.65-1.04-3.9-1.28s-2.6-.36-4.08-.36c-2.43,0-4.37.73-5.81,2.19-1.44,1.46-2.16,3.47-2.16,6.03s.6,4.36,1.82,5.74c1.21,1.38,2.9,2.07,5.08,2.07,1.01,0,1.76-.05,2.24-.16v-4.2h-5.64v-6.71h14.5v15.83Z"/><path d="m228.68,76.02l-2.19-6.34c-.42-1.24-.97-2.22-1.65-2.93-.68-.71-1.41-1.07-2.2-1.07h-.35v10.34h-8.86v-29.41h11.77c4.12,0,7.15.67,9.12,2.02,1.96,1.35,2.94,3.37,2.94,6.06,0,2.02-.57,3.72-1.71,5.09-1.14,1.37-2.84,2.36-5.1,2.97v.08c1.24.38,2.28,1,3.11,1.87.83.86,1.57,2.14,2.22,3.83l2.89,7.49h-9.99Zm-.84-20.08c0-.98-.3-1.76-.9-2.34s-1.54-.86-2.83-.86h-1.83v6.73h1.6c1.19,0,2.15-.33,2.87-1s1.09-1.51,1.09-2.52Z"/><path d="m242.07,76.02v-29.41h18.31v6.93h-9.45v4.29h8.88v6.93h-8.88v4.33h10.13v6.93h-18.99Z"/><path d="m285.67,67.12c0,1.96-.52,3.66-1.57,5.11-1.04,1.45-2.51,2.53-4.4,3.24s-4.16,1.07-6.81,1.07c-3.08,0-5.89-.52-8.45-1.56v-8.06c1.23.9,2.59,1.63,4.08,2.18,1.49.55,2.88.83,4.16.83.97,0,1.72-.17,2.26-.52.53-.35.8-.86.8-1.53,0-.48-.13-.9-.4-1.26-.27-.36-.67-.7-1.21-1.02-.54-.31-1.54-.75-3-1.29-4.73-1.82-7.1-4.76-7.1-8.82,0-2.84,1.08-5.12,3.24-6.82,2.16-1.7,5.06-2.55,8.7-2.55,1.03,0,1.97.04,2.83.12s1.64.18,2.35.31c.71.12,1.69.36,2.96.7v7.49c-2.47-1.35-4.91-2.03-7.3-2.03-.98,0-1.78.18-2.38.55s-.9.88-.9,1.52.24,1.12.73,1.53c.49.4,1.5.93,3.05,1.57,3.05,1.23,5.21,2.58,6.47,4.04,1.27,1.46,1.9,3.2,1.9,5.21Z"/><path d="m289.26,76.02v-29.41h18.31v6.93h-9.45v4.29h8.88v6.93h-8.88v4.33h10.13v6.93h-18.99Z"/><path d="m330.87,76.02l-1.29-5.41h-8.78l-1.39,5.41h-9.58l10.13-29.41h10.99l9.54,29.41h-9.62Zm-5.58-23.01h-.21c-.03.33-.12.87-.29,1.62s-.99,3.98-2.48,9.68h5.62l-2.05-8c-.29-1.18-.49-2.28-.59-3.3Z"/><path d="m359.19,76.02l-2.19-6.34c-.42-1.24-.97-2.22-1.65-2.93-.68-.71-1.41-1.07-2.2-1.07h-.35v10.34h-8.86v-29.41h11.77c4.12,0,7.15.67,9.12,2.02,1.96,1.35,2.94,3.37,2.94,6.06,0,2.02-.57,3.72-1.71,5.09-1.14,1.37-2.84,2.36-5.1,2.97v.08c1.24.38,2.28,1,3.11,1.87.83.86,1.57,2.14,2.22,3.83l2.89,7.49h-9.99Zm-.84-20.08c0-.98-.3-1.76-.9-2.34s-1.54-.86-2.83-.86h-1.83v6.73h1.6c1.19,0,2.15-.33,2.87-1s1.09-1.51,1.09-2.52Z"/><path d="m394.46,75.22c-2.43.88-5.24,1.31-8.43,1.31s-5.83-.6-8.1-1.79-4-2.9-5.2-5.11c-1.2-2.21-1.79-4.75-1.79-7.64,0-3.1.67-5.87,2.01-8.29s3.23-4.29,5.68-5.61c2.45-1.32,5.26-1.98,8.45-1.98,2.54,0,5,.31,7.38.92v8.18c-.82-.49-1.8-.88-2.93-1.15s-2.28-.41-3.45-.41c-2.41,0-4.3.69-5.69,2.07-1.39,1.38-2.08,3.25-2.08,5.62s.69,4.21,2.08,5.57c1.39,1.36,3.24,2.04,5.57,2.04,2.15,0,4.31-.55,6.5-1.64v7.9Z"/><path d="m418.07,76.02v-10.97h-10.17v10.97h-8.86v-29.41h8.86v10.89h10.17v-10.89h8.86v29.41h-8.86Z"/><path d="m12.32,97.16l-2.68,9.49h-1.3l-1.95-6.93c-.08-.3-.14-.62-.15-.97h-.03c-.03.33-.08.64-.17.95l-1.97,6.95h-1.29l-2.78-9.49h1.22l2.02,7.28c.08.3.14.62.16.95h.03c.02-.23.09-.55.21-.95l2.1-7.28h1.07l2.01,7.33c.07.25.12.55.16.89h.03c.02-.23.08-.53.18-.91l1.94-7.3h1.2Z"/><path d="m18.5,103.53h-4.78c.02.76.22,1.34.61,1.75.39.41.92.62,1.6.62.76,0,1.46-.25,2.1-.75v1.02c-.6.43-1.38.65-2.36.65s-1.71-.31-2.26-.92c-.55-.61-.82-1.48-.82-2.6,0-1.05.3-1.91.9-2.58s1.34-1,2.23-1,1.57.29,2.06.86.73,1.37.73,2.39v.57Zm-1.11-.92c0-.63-.15-1.11-.45-1.46-.3-.35-.71-.52-1.24-.52s-.95.18-1.3.55c-.36.37-.58.85-.66,1.44h3.66Z"/><path d="m23.44,106.4v-1.16c.59.44,1.24.65,1.95.65.95,0,1.43-.32,1.43-.95,0-.18-.04-.33-.12-.46-.08-.13-.19-.24-.33-.33s-.3-.18-.49-.26c-.19-.08-.39-.16-.6-.24-.3-.12-.56-.24-.79-.36-.23-.12-.42-.26-.57-.41-.15-.15-.27-.33-.34-.52-.08-.19-.12-.42-.12-.68,0-.32.07-.6.22-.84.15-.24.34-.45.58-.61.24-.17.52-.29.83-.37.31-.08.63-.13.96-.13.59,0,1.11.1,1.57.3v1.1c-.5-.33-1.07-.49-1.72-.49-.2,0-.39.02-.55.07-.16.05-.3.11-.42.2-.12.08-.21.18-.27.3-.06.12-.09.25-.09.39,0,.18.03.32.09.44.06.12.16.23.28.32.12.09.27.18.45.25.18.07.38.16.6.24.3.11.57.23.81.35s.44.26.61.41c.17.15.3.33.39.53.09.2.14.43.14.71,0,.34-.07.63-.22.87-.15.25-.35.45-.59.62-.25.16-.53.28-.85.36s-.66.12-1.01.12c-.7,0-1.3-.13-1.81-.4Z"/><path d="m35.08,106.65h-1.09v-1.07h-.03c-.45.82-1.15,1.23-2.09,1.23-1.61,0-2.42-.96-2.42-2.88v-4.05h1.08v3.88c0,1.43.55,2.14,1.64,2.14.53,0,.97-.2,1.31-.59.34-.39.51-.9.51-1.53v-3.9h1.09v6.78Z"/><path d="m38.38,105.67h-.03v4.1h-1.09v-9.89h1.09v1.19h.03c.53-.9,1.31-1.35,2.34-1.35.87,0,1.56.3,2.04.91s.73,1.42.73,2.44c0,1.13-.28,2.04-.83,2.72-.55.68-1.31,1.02-2.26,1.02-.88,0-1.55-.38-2.03-1.14Zm-.03-2.73v.95c0,.56.18,1.04.54,1.43.36.39.83.59,1.39.59.66,0,1.17-.25,1.54-.75.37-.5.56-1.2.56-2.1,0-.76-.17-1.35-.52-1.77-.35-.43-.82-.64-1.42-.64-.63,0-1.14.22-1.52.66s-.58.99-.58,1.65Z"/><path d="m46.35,105.67h-.03v4.1h-1.09v-9.89h1.09v1.19h.03c.53-.9,1.31-1.35,2.34-1.35.87,0,1.56.3,2.04.91s.73,1.42.73,2.44c0,1.13-.28,2.04-.83,2.72-.55.68-1.31,1.02-2.26,1.02-.88,0-1.55-.38-2.03-1.14Zm-.03-2.73v.95c0,.56.18,1.04.54,1.43.36.39.83.59,1.39.59.66,0,1.17-.25,1.54-.75.37-.5.56-1.2.56-2.1,0-.76-.17-1.35-.52-1.77-.35-.43-.82-.64-1.42-.64-.63,0-1.14.22-1.52.66s-.58.99-.58,1.65Z"/><path d="m56.03,106.8c-1,0-1.8-.32-2.4-.95s-.9-1.47-.9-2.52c0-1.14.31-2.03.93-2.67.62-.64,1.46-.96,2.52-.96s1.8.31,2.36.93c.57.62.85,1.48.85,2.59s-.31,1.95-.92,2.6c-.61.65-1.43.98-2.46.98Zm.08-6.18c-.7,0-1.25.24-1.65.71-.41.47-.61,1.13-.61,1.96s.21,1.44.62,1.9c.41.46.96.7,1.65.7s1.24-.23,1.62-.68c.38-.45.57-1.1.57-1.94s-.19-1.5-.57-1.96-.92-.69-1.62-.69Z"/><path d="m64.67,100.97c-.19-.15-.46-.22-.82-.22-.46,0-.85.22-1.16.66-.31.44-.47,1.03-.47,1.79v3.45h-1.09v-6.78h1.09v1.4h.03c.15-.48.39-.85.71-1.12s.67-.4,1.07-.4c.28,0,.5.03.65.09v1.12Z"/><path d="m69,106.58c-.26.14-.59.21-1.01.21-1.19,0-1.78-.66-1.78-1.98v-4.01h-1.16v-.93h1.16v-1.65l1.09-.35v2.01h1.71v.93h-1.71v3.82c0,.45.08.78.23.97.15.19.41.29.77.29.27,0,.51-.07.71-.22v.93Z"/><path d="m77.3,106.58c-.26.14-.59.21-1.01.21-1.19,0-1.78-.66-1.78-1.98v-4.01h-1.16v-.93h1.16v-1.65l1.09-.35v2.01h1.71v.93h-1.71v3.82c0,.45.08.78.23.97s.41.29.77.29c.27,0,.51-.07.71-.22v.93Z"/><path d="m84.37,106.65h-1.09v-3.9c0-1.41-.53-2.12-1.57-2.12-.53,0-.97.2-1.34.61s-.54.93-.54,1.57v3.84h-1.09v-10.03h1.09v4.38h.03c.52-.86,1.26-1.28,2.22-1.28,1.53,0,2.29.92,2.29,2.76v4.18Z"/><path d="m91.86,103.53h-4.78c.02.76.22,1.34.61,1.75.39.41.92.62,1.6.62.76,0,1.46-.25,2.1-.75v1.02c-.6.43-1.38.65-2.36.65s-1.71-.31-2.26-.92c-.55-.61-.82-1.48-.82-2.6,0-1.05.3-1.91.9-2.58s1.34-1,2.23-1,1.57.29,2.06.86.73,1.37.73,2.39v.57Zm-1.11-.92c0-.63-.15-1.11-.45-1.46-.3-.35-.71-.52-1.24-.52s-.95.18-1.3.55c-.36.37-.58.85-.66,1.44h3.66Z"/><path d="m96.92,106.26v-1.31c.15.13.33.25.54.36.21.11.43.2.66.27.23.07.46.13.7.17.23.04.45.06.65.06.68,0,1.19-.13,1.53-.38.34-.25.51-.62.51-1.1,0-.26-.06-.48-.17-.67-.11-.19-.27-.36-.47-.52-.2-.16-.43-.31-.71-.45s-.56-.29-.88-.45c-.33-.17-.64-.34-.93-.51-.29-.17-.54-.36-.75-.57-.21-.21-.38-.44-.5-.71s-.18-.57-.18-.92c0-.43.09-.81.28-1.13.19-.32.44-.58.75-.79.31-.21.66-.36,1.06-.46.39-.1.8-.15,1.21-.15.93,0,1.62.11,2.04.34v1.25c-.56-.39-1.28-.58-2.16-.58-.24,0-.48.03-.73.08-.24.05-.46.13-.65.25-.19.11-.34.26-.46.44-.12.18-.18.4-.18.66,0,.24.05.45.14.63.09.18.22.34.4.48.18.15.39.29.65.42.25.14.54.29.88.45.34.17.66.34.97.53.31.19.57.39.8.62.23.22.41.47.55.75.13.27.2.59.2.94,0,.47-.09.86-.28,1.19-.18.32-.43.59-.74.79-.31.2-.67.35-1.07.44-.41.09-.83.14-1.28.14-.15,0-.33-.01-.56-.04-.22-.02-.45-.06-.67-.11-.23-.05-.45-.1-.65-.17s-.37-.14-.49-.23Z"/><path d="m109.89,106.65h-1.09v-1.07h-.03c-.45.82-1.15,1.23-2.09,1.23-1.61,0-2.42-.96-2.42-2.88v-4.05h1.08v3.88c0,1.43.55,2.14,1.64,2.14.53,0,.97-.2,1.31-.59.34-.39.51-.9.51-1.53v-3.9h1.09v6.78Z"/><path d="m111.67,106.4v-1.16c.59.44,1.24.65,1.95.65.95,0,1.43-.32,1.43-.95,0-.18-.04-.33-.12-.46-.08-.13-.19-.24-.33-.33-.14-.1-.3-.18-.49-.26-.19-.08-.39-.16-.61-.24-.3-.12-.56-.24-.79-.36-.23-.12-.42-.26-.57-.41s-.27-.33-.34-.52c-.08-.19-.12-.42-.12-.68,0-.32.07-.6.22-.84.14-.24.34-.45.58-.61.24-.17.52-.29.83-.37.31-.08.63-.13.96-.13.59,0,1.11.1,1.57.3v1.1c-.5-.33-1.07-.49-1.72-.49-.2,0-.39.02-.55.07-.16.05-.3.11-.42.2-.12.08-.21.18-.27.3s-.1.25-.1.39c0,.18.03.32.1.44.06.12.16.23.28.32.12.09.27.18.45.25.18.07.38.16.6.24.3.11.57.23.81.35s.44.26.61.41c.17.15.3.33.39.53.09.2.14.43.14.71,0,.34-.07.63-.22.87-.15.25-.34.45-.59.62-.25.16-.53.28-.85.36-.32.08-.66.12-1.01.12-.7,0-1.3-.13-1.81-.4Z"/><path d="m120.97,106.58c-.26.14-.59.21-1.01.21-1.19,0-1.78-.66-1.78-1.98v-4.01h-1.16v-.93h1.16v-1.65l1.09-.35v2.01h1.71v.93h-1.71v3.82c0,.45.08.78.23.97.15.19.41.29.77.29.27,0,.51-.07.71-.22v.93Z"/><path d="m127.27,106.65h-1.09v-1.06h-.03c-.47.81-1.17,1.22-2.08,1.22-.68,0-1.2-.18-1.58-.54-.38-.36-.57-.83-.57-1.42,0-1.27.75-2,2.24-2.21l2.03-.28c0-1.15-.47-1.73-1.4-1.73-.82,0-1.55.28-2.21.83v-1.11c.67-.42,1.43-.64,2.3-.64,1.59,0,2.39.84,2.39,2.53v4.41Zm-1.09-3.43l-1.63.22c-.5.07-.88.2-1.14.37-.26.18-.38.5-.38.95,0,.33.12.6.35.81.24.21.55.31.94.31.54,0,.98-.19,1.33-.57.35-.38.53-.85.53-1.43v-.67Z"/><path d="m129.87,98.15c-.19,0-.36-.07-.5-.2s-.21-.3-.21-.5.07-.37.21-.51.3-.2.5-.2.37.07.51.2.21.3.21.51-.07.36-.21.5c-.14.14-.31.21-.51.21Zm.53,8.5h-1.09v-6.78h1.09v6.78Z"/><path d="m138.22,106.65h-1.09v-3.86c0-1.44-.52-2.16-1.57-2.16-.54,0-.99.2-1.35.61s-.53.92-.53,1.55v3.86h-1.09v-6.78h1.09v1.12h.03c.51-.86,1.25-1.28,2.22-1.28.74,0,1.31.24,1.7.72s.59,1.17.59,2.07v4.14Z"/><path d="m145.12,106.65h-1.09v-1.06h-.03c-.47.81-1.17,1.22-2.08,1.22-.67,0-1.2-.18-1.58-.54-.38-.36-.57-.83-.57-1.42,0-1.27.74-2,2.24-2.21l2.03-.28c0-1.15-.47-1.73-1.4-1.73-.82,0-1.55.28-2.21.83v-1.11c.67-.42,1.43-.64,2.3-.64,1.59,0,2.39.84,2.39,2.53v4.41Zm-1.09-3.43l-1.63.22c-.5.07-.88.2-1.14.37-.26.18-.38.5-.38.95,0,.33.12.6.35.81.24.21.55.31.94.31.54,0,.98-.19,1.33-.57.35-.38.53-.85.53-1.43v-.67Z"/><path d="m148.27,105.67h-.03v.98h-1.09v-10.03h1.09v4.45h.03c.53-.9,1.31-1.35,2.34-1.35.87,0,1.55.3,2.04.91.49.61.74,1.42.74,2.44,0,1.13-.28,2.04-.83,2.72-.55.68-1.31,1.02-2.26,1.02-.9,0-1.57-.38-2.03-1.14Zm-.03-2.73v.95c0,.56.18,1.04.55,1.43.36.39.83.59,1.39.59.66,0,1.17-.25,1.55-.75s.56-1.2.56-2.1c0-.76-.17-1.35-.52-1.77-.35-.43-.82-.64-1.42-.64-.63,0-1.14.22-1.52.66-.38.44-.58.99-.58,1.65Z"/><path d="m156.21,106.65h-1.09v-10.03h1.09v10.03Z"/><path d="m163.85,103.53h-4.78c.02.76.22,1.34.61,1.75.39.41.92.62,1.6.62.76,0,1.46-.25,2.1-.75v1.02c-.6.43-1.38.65-2.36.65s-1.71-.31-2.26-.92c-.55-.61-.82-1.48-.82-2.6,0-1.05.3-1.91.9-2.58.6-.66,1.34-1,2.23-1s1.57.29,2.06.86c.49.57.73,1.37.73,2.39v.57Zm-1.11-.92c0-.63-.16-1.11-.45-1.46-.3-.35-.71-.52-1.24-.52s-.95.18-1.3.55c-.36.37-.58.85-.66,1.44h3.66Z"/><path d="m169.35,106.65v-9.49h2.62c3.34,0,5.02,1.54,5.02,4.62,0,1.46-.46,2.64-1.39,3.53s-2.17,1.33-3.73,1.33h-2.51Zm1.11-8.48v7.48h1.42c1.24,0,2.21-.33,2.9-1,.69-.67,1.04-1.61,1.04-2.83,0-2.43-1.29-3.65-3.88-3.65h-1.48Z"/><path d="m184.15,103.53h-4.78c.02.76.22,1.34.61,1.75.39.41.92.62,1.6.62.76,0,1.46-.25,2.1-.75v1.02c-.6.43-1.38.65-2.36.65s-1.71-.31-2.26-.92c-.55-.61-.82-1.48-.82-2.6,0-1.05.3-1.91.9-2.58.6-.66,1.34-1,2.23-1s1.57.29,2.06.86c.49.57.73,1.37.73,2.39v.57Zm-1.11-.92c0-.63-.16-1.11-.45-1.46-.3-.35-.71-.52-1.24-.52s-.95.18-1.3.55c-.36.37-.58.85-.66,1.44h3.66Z"/><path d="m191.12,99.87l-2.7,6.78h-1.06l-2.57-6.78h1.19l1.72,4.92c.13.36.21.68.24.95h.03c.04-.34.11-.65.21-.92l1.8-4.95h1.14Z"/><path d="m197.73,103.53h-4.78c.02.76.22,1.34.61,1.75.39.41.92.62,1.6.62.76,0,1.46-.25,2.1-.75v1.02c-.6.43-1.38.65-2.36.65s-1.71-.31-2.26-.92c-.55-.61-.82-1.48-.82-2.6,0-1.05.3-1.91.9-2.58.6-.66,1.34-1,2.23-1s1.57.29,2.06.86c.49.57.73,1.37.73,2.39v.57Zm-1.11-.92c0-.63-.16-1.11-.45-1.46-.3-.35-.71-.52-1.24-.52s-.95.18-1.3.55c-.36.37-.58.85-.66,1.44h3.66Z"/><path d="m200.46,106.65h-1.09v-10.03h1.09v10.03Z"/><path d="m205.48,106.8c-1,0-1.8-.32-2.4-.95s-.9-1.47-.9-2.52c0-1.14.31-2.03.93-2.67.62-.64,1.46-.96,2.52-.96s1.8.31,2.36.93c.57.62.85,1.48.85,2.59s-.31,1.95-.92,2.6c-.61.65-1.43.98-2.46.98Zm.08-6.18c-.7,0-1.25.24-1.65.71-.41.47-.61,1.13-.61,1.96s.21,1.44.62,1.9c.41.46.96.7,1.65.7s1.24-.23,1.62-.68c.38-.45.57-1.1.57-1.94s-.19-1.5-.57-1.96-.92-.69-1.62-.69Z"/><path d="m211.7,105.67h-.03v4.1h-1.09v-9.89h1.09v1.19h.03c.53-.9,1.31-1.35,2.34-1.35.87,0,1.56.3,2.04.91s.73,1.42.73,2.44c0,1.13-.28,2.04-.83,2.72-.55.68-1.31,1.02-2.26,1.02-.88,0-1.55-.38-2.03-1.14Zm-.03-2.73v.95c0,.56.18,1.04.54,1.43.36.39.83.59,1.39.59.66,0,1.17-.25,1.54-.75.37-.5.56-1.2.56-2.1,0-.76-.17-1.35-.52-1.77-.35-.43-.82-.64-1.42-.64-.63,0-1.14.22-1.52.66s-.58.99-.58,1.65Z"/><path d="m228.18,106.65h-1.09v-3.89c0-.75-.12-1.29-.35-1.63s-.62-.5-1.17-.5c-.46,0-.86.21-1.18.64-.32.42-.49.93-.49,1.52v3.86h-1.09v-4.02c0-1.33-.51-2-1.54-2-.48,0-.87.2-1.18.6-.31.4-.46.92-.46,1.56v3.86h-1.09v-6.78h1.09v1.07h.03c.48-.82,1.18-1.23,2.1-1.23.46,0,.87.13,1.21.39.34.26.58.6.71,1.02.5-.93,1.25-1.4,2.25-1.4,1.49,0,2.24.92,2.24,2.76v4.18Z"/><path d="m235.67,103.53h-4.78c.02.76.22,1.34.61,1.75.39.41.92.62,1.6.62.76,0,1.46-.25,2.1-.75v1.02c-.6.43-1.38.65-2.36.65s-1.71-.31-2.26-.92c-.55-.61-.82-1.48-.82-2.6,0-1.05.3-1.91.9-2.58s1.34-1,2.23-1,1.57.29,2.06.86.73,1.37.73,2.39v.57Zm-1.11-.92c0-.63-.15-1.11-.45-1.46-.3-.35-.71-.52-1.24-.52s-.95.18-1.3.55c-.36.37-.58.85-.66,1.44h3.66Z"/><path d="m242.94,106.65h-1.09v-3.86c0-1.44-.52-2.16-1.57-2.16-.54,0-.99.2-1.35.61-.35.41-.53.92-.53,1.55v3.86h-1.09v-6.78h1.09v1.12h.03c.51-.86,1.25-1.28,2.22-1.28.74,0,1.31.24,1.7.72.39.48.59,1.17.59,2.07v4.14Z"/><path d="m248.13,106.58c-.26.14-.59.21-1.01.21-1.19,0-1.78-.66-1.78-1.98v-4.01h-1.16v-.93h1.16v-1.65l1.09-.35v2.01h1.71v.93h-1.71v3.82c0,.45.08.78.23.97.15.19.41.29.77.29.27,0,.51-.07.71-.22v.93Z"/><path d="m259.07,106.1c0,2.49-1.19,3.73-3.57,3.73-.84,0-1.57-.16-2.2-.48v-1.09c.76.42,1.49.64,2.18.64,1.67,0,2.5-.89,2.5-2.66v-.74h-.03c-.52.86-1.29,1.3-2.33,1.3-.84,0-1.52-.3-2.03-.9-.51-.6-.77-1.41-.77-2.43,0-1.15.28-2.07.83-2.75.55-.68,1.31-1.02,2.27-1.02.91,0,1.59.37,2.03,1.1h.03v-.94h1.09v6.23Zm-1.09-2.52v-1c0-.54-.18-1-.55-1.38-.36-.38-.82-.58-1.36-.58-.67,0-1.19.24-1.57.73s-.57,1.17-.57,2.05c0,.75.18,1.36.55,1.81.36.45.85.68,1.45.68s1.1-.22,1.49-.65.57-.99.57-1.66Z"/><path d="m264.1,106.8c-1,0-1.8-.32-2.4-.95s-.9-1.47-.9-2.52c0-1.14.31-2.03.93-2.67.62-.64,1.46-.96,2.52-.96s1.8.31,2.37.93c.57.62.85,1.48.85,2.59s-.31,1.95-.92,2.6-1.43.98-2.46.98Zm.08-6.18c-.7,0-1.25.24-1.65.71s-.61,1.13-.61,1.96.21,1.44.61,1.9c.41.46.96.7,1.65.7s1.24-.23,1.62-.68c.38-.45.57-1.1.57-1.94s-.19-1.5-.57-1.96c-.38-.46-.92-.69-1.62-.69Z"/><path d="m274.06,106.65h-1.09v-1.06h-.03c-.47.81-1.17,1.22-2.08,1.22-.67,0-1.2-.18-1.58-.54-.38-.36-.57-.83-.57-1.42,0-1.27.74-2,2.24-2.21l2.03-.28c0-1.15-.47-1.73-1.4-1.73-.82,0-1.55.28-2.21.83v-1.11c.67-.42,1.43-.64,2.3-.64,1.59,0,2.39.84,2.39,2.53v4.41Zm-1.09-3.43l-1.63.22c-.5.07-.88.2-1.14.37-.26.18-.38.5-.38.95,0,.33.12.6.35.81.24.21.55.31.94.31.54,0,.98-.19,1.33-.57.35-.38.53-.85.53-1.43v-.67Z"/><path d="m277.19,106.65h-1.09v-10.03h1.09v10.03Z"/><path d="m278.97,106.4v-1.16c.59.44,1.24.65,1.95.65.95,0,1.43-.32,1.43-.95,0-.18-.04-.33-.12-.46-.08-.13-.19-.24-.33-.33-.14-.1-.3-.18-.49-.26s-.39-.16-.6-.24c-.3-.12-.56-.24-.79-.36s-.42-.26-.57-.41-.27-.33-.34-.52c-.08-.19-.12-.42-.12-.68,0-.32.07-.6.22-.84.15-.24.34-.45.58-.61.24-.17.52-.29.83-.37.31-.08.63-.13.96-.13.59,0,1.11.1,1.57.3v1.1c-.5-.33-1.07-.49-1.72-.49-.2,0-.39.02-.55.07-.16.05-.3.11-.42.2s-.21.18-.27.3c-.06.12-.1.25-.1.39,0,.18.03.32.1.44.06.12.16.23.28.32.12.09.27.18.45.25.18.07.38.16.6.24.3.11.57.23.81.35s.44.26.61.41c.17.15.3.33.39.53.09.2.14.43.14.71,0,.34-.07.63-.22.87s-.35.45-.59.62c-.25.16-.53.28-.85.36-.32.08-.66.12-1.01.12-.7,0-1.3-.13-1.81-.4Z"/><path class="cls-16" d="m565.01,91.17l-4.35,23.35s8.31,1.98,16.87,0l-4.47-23.35s-4.09.4-8.05,0Z"/><path class="cls-4" d="m576.33,90.31l4.41,23.34s8.46-1.17,15.72-6.12l-12.64-20.14s-3.67,1.85-7.5,2.92Z"/><path class="cls-12" d="m586.39,85.64l12.57,20.16s7.46-4.16,12.44-11.4l-19.08-14.19s-2.75,3.05-5.93,5.44Z"/><path class="cls-5" d="m594.16,77.82l19.17,14.03s5.38-6.64,7.3-15.21l-22.99-6.08s-1.41,3.86-3.48,7.25Z"/><path class="cls-6" d="m598.28,67.24l22.95,6.13s2.61-8.14,1.29-16.82l-23.63,2.67s.08,4.11-.61,8.02Z"/><path class="cls-14" d="m598.42,56.14l23.61-2.61s-.52-8.53-4.9-16.15l-21.05,11.05s1.56,3.8,2.33,7.7Z"/><path class="cls-3" d="m595.38,45.82l21.25-10.63s-3.44-7.82-10.19-13.45l-15.92,17.66s2.78,3.02,4.86,6.41Z"/><path class="cls-11" d="m588,37.34l15.74-17.79s-6.11-5.97-14.47-8.68l-8.17,22.33s3.71,1.76,6.9,4.14Z"/><path class="cls-18" d="m578.21,32.48l8.21-22.29s-7.86-3.35-16.63-2.83l.49,23.77s4.1.3,7.93,1.35Z"/><path class="cls-15" d="m567.16,31.02l-.44-23.75s-8.54-.26-16.53,3.4l9.09,21.97s3.92-1.21,7.88-1.62Z"/><path class="cls-13" d="m556.21,33.74l-8.97-22s-8.06,2.83-14.19,9.13l16.4,17.22s3.22-2.55,6.77-4.35Z"/><path class="cls-1" d="m547.28,40.33l-16.33-17.25s-6.49,5.56-9.92,13.65l21.52,10.11s2.08-3.54,4.73-6.51Z"/><path class="cls-2" d="m541.38,49.07l-20.96-11.18s-4.39,7.33-5.08,16.09l23.62,2.77s.85-4.02,2.42-7.67Z"/><path class="cls-8" d="m538.72,59.84l-23.59-2.83s-1.44,8.42,1.1,16.84l23.01-5.98s-.66-4.05-.52-8.03Z"/><path class="cls-10" d="m539.95,70.79l-22.95,6.15s1.8,8.35,7.28,15.22l19.14-14.11s-2.12-3.52-3.47-7.26Z"/><path class="cls-17" d="m545.61,80.63l-19.15,14.05s4.71,7.13,12.3,11.54l12.72-20.09s-3.25-2.51-5.87-5.51Z"/><path class="cls-9" d="m554.17,87.7l-12.76,20.04s6.97,4.94,15.65,6.3l4.57-23.33s-3.94-1.16-7.46-3.01Z"/><line class="cls-7" x1="478.21" x2="478.21" y2="122.63"/></g></svg>